G04*
G04 #@! TF.GenerationSoftware,Altium Limited,Altium Designer,24.3.1 (35)*
G04*
G04 Layer_Physical_Order=1*
G04 Layer_Color=255*
%FSLAX25Y25*%
%MOIN*%
G70*
G04*
G04 #@! TF.SameCoordinates,FD519535-7E5F-4FBF-A31B-089F6CA01B13*
G04*
G04*
G04 #@! TF.FilePolarity,Positive*
G04*
G01*
G75*
%ADD11C,0.00984*%
%ADD12C,0.01968*%
%ADD30R,0.03150X0.18504*%
%ADD31R,0.42520X0.27953*%
%ADD35C,0.12205*%
%ADD47R,0.19685X0.05315*%
%ADD48R,0.05315X0.19685*%
%ADD49R,0.12598X0.05984*%
%ADD50R,0.13780X0.11221*%
%ADD51R,0.12205X0.06299*%
%ADD52R,0.03543X0.03937*%
%ADD53R,0.03150X0.03150*%
%ADD54R,0.21654X0.15748*%
%ADD55R,0.07087X0.05118*%
%ADD56R,0.06693X0.04528*%
%ADD57R,0.03150X0.03937*%
%ADD58R,0.04528X0.06693*%
%ADD59R,0.18504X0.05709*%
%ADD60R,0.37402X0.42913*%
%ADD61R,0.05906X0.05906*%
%ADD62C,0.03937*%
%ADD63C,0.11811*%
%ADD64C,0.11811*%
%ADD65C,0.05512*%
%ADD66C,0.06496*%
%ADD67C,0.07874*%
%ADD68C,0.13780*%
%ADD69C,0.06000*%
%ADD70R,0.06000X0.06000*%
%ADD71C,0.08661*%
%ADD72C,0.36417*%
%ADD73C,0.03937*%
G36*
X622047Y287402D02*
X629921Y279528D01*
Y265748D01*
X553150D01*
Y287402D01*
X622047Y287402D01*
D02*
G37*
G36*
X704724Y306890D02*
X704325D01*
X703587Y306584D01*
X703022Y306019D01*
X702716Y305281D01*
Y304483D01*
X703022Y303745D01*
X703587Y303180D01*
X704325Y302874D01*
X704724D01*
Y301181D01*
Y283465D01*
X716535Y271654D01*
X746827D01*
Y202756D01*
X746063D01*
Y207087D01*
X738189D01*
Y184646D01*
X714567D01*
Y207087D01*
X706693D01*
Y202756D01*
X702756D01*
Y229012D01*
X702874Y229605D01*
Y231025D01*
X702756Y231618D01*
Y251453D01*
X702874Y252046D01*
Y253466D01*
X702756Y254059D01*
Y257874D01*
X687008Y273622D01*
Y301181D01*
Y311024D01*
X665354D01*
Y273622D01*
X657480D01*
Y313756D01*
X704724D01*
Y306890D01*
D02*
G37*
G36*
X700787Y147638D02*
X679134D01*
Y167323D01*
X643701D01*
Y187008D01*
X700787D01*
Y147638D01*
D02*
G37*
G36*
X603346Y165354D02*
X606988D01*
Y163386D01*
X608957D01*
Y152559D01*
X610236D01*
Y150591D01*
X608957D01*
Y139764D01*
Y128937D01*
X610236D01*
Y124016D01*
X584646D01*
Y151575D01*
X555118D01*
X549213Y145669D01*
X533465D01*
X527559Y151575D01*
Y153543D01*
Y173228D01*
X603346D01*
Y165354D01*
D02*
G37*
G36*
X651575Y236221D02*
X637795Y222441D01*
X570866D01*
X561024Y212598D01*
Y194882D01*
X635827D01*
Y141732D01*
X700787D01*
Y119314D01*
X612205D01*
Y175197D01*
X533465D01*
Y180709D01*
X541339D01*
Y184350D01*
Y187992D01*
X533465D01*
Y222441D01*
X562992Y251969D01*
X631890D01*
Y281496D01*
X624016Y289370D01*
X551181D01*
Y273622D01*
X531496D01*
Y313756D01*
X651575D01*
Y236221D01*
D02*
G37*
%LPC*%
G36*
X593898Y279153D02*
X588583D01*
Y277146D01*
X593898D01*
Y279153D01*
D02*
G37*
G36*
X584646D02*
X579331D01*
Y277146D01*
X584646D01*
Y279153D01*
D02*
G37*
G36*
X593898Y273209D02*
X588583D01*
Y271201D01*
X593898D01*
Y273209D01*
D02*
G37*
G36*
X584646D02*
X579331D01*
Y271201D01*
X584646D01*
Y273209D01*
D02*
G37*
G36*
X697213Y293669D02*
X688614D01*
Y285071D01*
X697213D01*
Y293669D01*
D02*
G37*
G36*
X664189Y280134D02*
X661917D01*
Y277665D01*
X664189D01*
Y280134D01*
D02*
G37*
G36*
X660917D02*
X658646D01*
Y277665D01*
X660917D01*
Y280134D01*
D02*
G37*
G36*
X664189Y276665D02*
X661917D01*
Y274197D01*
X664189D01*
Y276665D01*
D02*
G37*
G36*
X660917D02*
X658646D01*
Y274197D01*
X660917D01*
Y276665D01*
D02*
G37*
G36*
X739066Y235138D02*
X737863D01*
X736685Y234903D01*
X735574Y234443D01*
X734575Y233775D01*
X733724Y232926D01*
X733057Y231926D01*
X732597Y230815D01*
X732362Y229637D01*
Y228434D01*
X732597Y227255D01*
X733057Y226145D01*
X733724Y225145D01*
X734575Y224295D01*
X735574Y223628D01*
X736685Y223168D01*
X737863Y222933D01*
X739066D01*
X740244Y223168D01*
X741355Y223628D01*
X742355Y224295D01*
X743205Y225145D01*
X743872Y226145D01*
X744332Y227255D01*
X744567Y228434D01*
Y229637D01*
X744332Y230815D01*
X743872Y231926D01*
X743205Y232926D01*
X742355Y233775D01*
X741355Y234443D01*
X740244Y234903D01*
X739066Y235138D01*
D02*
G37*
G36*
X695276Y160236D02*
X690158D01*
Y158071D01*
X695276D01*
Y160236D01*
D02*
G37*
G36*
X686221D02*
X681102D01*
Y158071D01*
X686221D01*
Y160236D01*
D02*
G37*
G36*
X695276Y154134D02*
X690158D01*
Y151969D01*
X695276D01*
Y154134D01*
D02*
G37*
G36*
X686221D02*
X681102D01*
Y151969D01*
X686221D01*
Y154134D01*
D02*
G37*
G36*
X577756Y165748D02*
X568898D01*
Y164075D01*
X577756D01*
Y165748D01*
D02*
G37*
G36*
X564961D02*
X556102D01*
Y164075D01*
X564961D01*
Y165748D01*
D02*
G37*
G36*
X554134Y165748D02*
X545276D01*
Y164075D01*
X554134D01*
Y165748D01*
D02*
G37*
G36*
X541339D02*
X532480D01*
Y164075D01*
X541339D01*
Y165748D01*
D02*
G37*
G36*
X601378D02*
X592520D01*
Y164075D01*
X601378D01*
Y165748D01*
D02*
G37*
G36*
X588583D02*
X579724D01*
Y164075D01*
X588583D01*
Y165748D01*
D02*
G37*
G36*
X577756Y160138D02*
X568898D01*
Y158465D01*
X577756D01*
Y160138D01*
D02*
G37*
G36*
X564961D02*
X556102D01*
Y158465D01*
X564961D01*
Y160138D01*
D02*
G37*
G36*
X601378Y160138D02*
X592520D01*
Y158465D01*
X601378D01*
Y160138D01*
D02*
G37*
G36*
X588583D02*
X579724D01*
Y158465D01*
X588583D01*
Y160138D01*
D02*
G37*
G36*
X554134Y160138D02*
X545276D01*
Y158465D01*
X554134D01*
Y160138D01*
D02*
G37*
G36*
X541339D02*
X532480D01*
Y158465D01*
X541339D01*
Y160138D01*
D02*
G37*
G36*
X605020Y161417D02*
X603346D01*
Y152559D01*
X605020D01*
Y161417D01*
D02*
G37*
G36*
Y150591D02*
X603346D01*
Y141732D01*
X605020D01*
Y150591D01*
D02*
G37*
G36*
Y137795D02*
X603346D01*
Y128937D01*
X605020D01*
Y137795D01*
D02*
G37*
G36*
X593898Y303602D02*
X588583D01*
Y301594D01*
X593898D01*
Y303602D01*
D02*
G37*
G36*
X584646D02*
X579331D01*
Y301594D01*
X584646D01*
Y303602D01*
D02*
G37*
G36*
X593898Y297657D02*
X588583D01*
Y295650D01*
X593898D01*
Y297657D01*
D02*
G37*
G36*
X584646D02*
X579331D01*
Y295650D01*
X584646D01*
Y297657D01*
D02*
G37*
G36*
X577756Y187992D02*
X568898D01*
Y186319D01*
X577756D01*
Y187992D01*
D02*
G37*
G36*
X564961D02*
X556102D01*
Y186319D01*
X564961D01*
Y187992D01*
D02*
G37*
G36*
X554134Y187992D02*
X545276D01*
Y186319D01*
X554134D01*
Y187992D01*
D02*
G37*
G36*
X601378D02*
X592520D01*
Y186319D01*
X601378D01*
Y187992D01*
D02*
G37*
G36*
X588583D02*
X579724D01*
Y186319D01*
X588583D01*
Y187992D01*
D02*
G37*
G36*
X577756Y182382D02*
X568898D01*
Y180709D01*
X577756D01*
Y182382D01*
D02*
G37*
G36*
X564961D02*
X556102D01*
Y180709D01*
X564961D01*
Y182382D01*
D02*
G37*
G36*
X601378Y182382D02*
X592520D01*
Y180709D01*
X601378D01*
Y182382D01*
D02*
G37*
G36*
X588583D02*
X579724D01*
Y180709D01*
X588583D01*
Y182382D01*
D02*
G37*
G36*
X554134Y182382D02*
X545276D01*
Y180709D01*
X554134D01*
Y182382D01*
D02*
G37*
G36*
X632874Y174213D02*
X631201D01*
Y165354D01*
X632874D01*
Y174213D01*
D02*
G37*
G36*
X627264D02*
X625591D01*
Y165354D01*
X627264D01*
Y174213D01*
D02*
G37*
G36*
X632874Y161417D02*
X631201D01*
Y152559D01*
X632874D01*
Y161417D01*
D02*
G37*
G36*
X627264D02*
X625591D01*
Y152559D01*
X627264D01*
Y161417D01*
D02*
G37*
G36*
X632874Y150591D02*
X631201D01*
Y141732D01*
X632874D01*
Y150591D01*
D02*
G37*
G36*
X627264D02*
X625591D01*
Y141732D01*
X627264D01*
Y150591D01*
D02*
G37*
G36*
X695276Y134646D02*
X690158D01*
Y132480D01*
X695276D01*
Y134646D01*
D02*
G37*
G36*
X686221D02*
X681102D01*
Y132480D01*
X686221D01*
Y134646D01*
D02*
G37*
G36*
X632874Y137795D02*
X631201D01*
Y128937D01*
X632874D01*
Y137795D01*
D02*
G37*
G36*
X627264D02*
X625591D01*
Y128937D01*
X627264D01*
Y137795D01*
D02*
G37*
G36*
X695276Y128543D02*
X690158D01*
Y126378D01*
X695276D01*
Y128543D01*
D02*
G37*
G36*
X686221D02*
X681102D01*
Y126378D01*
X686221D01*
Y128543D01*
D02*
G37*
%LPD*%
D11*
X530512Y130905D02*
X533136D01*
X531824D01*
Y138777D01*
X530512Y137465D01*
D12*
X661417Y252756D02*
X695669D01*
X661417Y259055D02*
Y270079D01*
X500000Y143701D02*
Y161417D01*
X488189Y143701D02*
Y161417D01*
X167480Y142520D02*
X168071Y143110D01*
X160236Y133321D02*
Y138726D01*
X181348Y123967D02*
X190699D01*
X181102Y124213D02*
X181348Y123967D01*
X164030Y142520D02*
X167480D01*
X163948Y131524D02*
X167323Y128150D01*
X168071Y143110D02*
Y150787D01*
X160236Y138726D02*
X164030Y142520D01*
X167323Y127756D02*
Y128150D01*
X200197Y123721D02*
X200492Y124016D01*
X190699Y123967D02*
X190945Y123721D01*
X168307Y126772D02*
X170866Y124213D01*
X181102D01*
X160236Y133321D02*
X162033Y131524D01*
X190945Y123721D02*
X200197D01*
X162033Y131524D02*
X163948D01*
X204724Y259842D02*
X208661Y263779D01*
Y266732D01*
X180905Y135827D02*
X181102Y136024D01*
X171260Y135827D02*
X180905D01*
X171063Y136024D02*
X171260Y135827D01*
X171918Y137429D02*
X173071Y138583D01*
X181102Y136024D02*
X181250Y135876D01*
X190699D01*
X173071Y138583D02*
Y150787D01*
X171918Y137008D02*
Y137429D01*
X190699Y135876D02*
X190945Y136122D01*
X212894Y124016D02*
X220472D01*
D30*
X168071Y150787D02*
D03*
X173071D02*
D03*
X178071D02*
D03*
X183071D02*
D03*
X188071D02*
D03*
X193071D02*
D03*
X198071D02*
D03*
D31*
X183071Y192913D02*
D03*
D35*
X738465Y229035D02*
D03*
X675315D02*
D03*
D47*
X543307Y162106D02*
D03*
Y184350D02*
D03*
X566929Y184350D02*
D03*
Y162106D02*
D03*
X590551Y184350D02*
D03*
Y162106D02*
D03*
X314961Y205413D02*
D03*
Y227658D02*
D03*
X291339Y205413D02*
D03*
Y227658D02*
D03*
X267717Y205413D02*
D03*
Y227658D02*
D03*
X244094Y205413D02*
D03*
Y227658D02*
D03*
X220472Y205413D02*
D03*
Y227658D02*
D03*
D48*
X629232Y163386D02*
D03*
X606988D02*
D03*
X629232Y139764D02*
D03*
X606988D02*
D03*
D49*
X586614Y299626D02*
D03*
Y275177D02*
D03*
X330709Y297657D02*
D03*
Y273209D02*
D03*
D50*
X657480Y136024D02*
D03*
Y171850D02*
D03*
D51*
X688189Y130512D02*
D03*
Y156102D02*
D03*
X204724Y270669D02*
D03*
Y296260D02*
D03*
X214567Y191929D02*
D03*
Y166339D02*
D03*
D52*
X661417Y277165D02*
D03*
Y270079D02*
D03*
D53*
Y252756D02*
D03*
Y259055D02*
D03*
D54*
X240158Y305118D02*
D03*
Y263779D02*
D03*
D55*
X181102Y135630D02*
D03*
Y124213D02*
D03*
D56*
X190945Y136122D02*
D03*
Y123721D02*
D03*
D57*
X171063Y136024D02*
D03*
X163583D02*
D03*
X167323Y127756D02*
D03*
D58*
X200492Y124016D02*
D03*
X212894D02*
D03*
D59*
X689961Y194646D02*
D03*
Y174646D02*
D03*
D60*
X726378Y184646D02*
D03*
D61*
X488189Y161417D02*
D03*
X500000D02*
D03*
D62*
X165354Y291339D02*
Y299213D01*
X172169Y306028D01*
X177091D02*
X177165Y306102D01*
X172169Y306028D02*
X177091D01*
X139764Y265748D02*
X165354Y291339D01*
X240158Y263779D02*
X243110D01*
X221457D02*
X240158D01*
X208661Y266732D02*
X218504D01*
X204724Y270669D02*
X208661Y266732D01*
X218504D02*
X221457Y263779D01*
X198071Y150787D02*
X199016D01*
X193071D02*
X198071D01*
X188071D02*
X193071D01*
X183071D02*
X188071D01*
X178071D02*
X183071D01*
X210433Y165157D02*
X211614Y166339D01*
X214567D01*
X199016Y150787D02*
X210433Y162205D01*
Y165157D01*
X291339Y205413D02*
X314961D01*
X267717D02*
X291339D01*
X244094D02*
X267717D01*
X220472D02*
X244094D01*
X177165Y217520D02*
X201181D01*
X164089D02*
X177165D01*
X219783Y206102D02*
X220472Y205413D01*
X139764Y193194D02*
X164089Y217520D01*
X201181D02*
X212598Y206102D01*
X219783D01*
X139764Y177165D02*
X160039D01*
X139764D02*
Y193194D01*
X160039Y177165D02*
X175787Y192913D01*
X183071D01*
X184055Y191929D01*
X214567D01*
X147638Y257874D02*
X184702D01*
X212598Y229977D01*
X139764Y265748D02*
X147638Y257874D01*
X212598Y228346D02*
X213287Y227658D01*
X220472D01*
X212598Y228346D02*
Y229977D01*
X314961Y227658D02*
X315902D01*
X291339D02*
X314961D01*
X316591Y228346D02*
Y235883D01*
X328740Y248031D01*
X341772D01*
X315902Y227658D02*
X316591Y228346D01*
X328740Y185039D02*
X341772D01*
X314961Y198819D02*
X328740Y185039D01*
X314961Y198819D02*
Y205413D01*
X267717Y227658D02*
X291339D01*
X244094D02*
X267717D01*
X220472D02*
X244094D01*
X187008Y296260D02*
X204724D01*
X177165Y306102D02*
X187008Y296260D01*
X208858Y300394D02*
X213583Y305118D01*
X208858Y297441D02*
Y300394D01*
X207677Y296260D02*
X208858Y297441D01*
X204724Y296260D02*
X207677D01*
X213583Y305118D02*
X240158D01*
X330633Y273209D02*
X330709D01*
X329609Y272185D02*
X330633Y273209D01*
X329609Y266617D02*
Y272185D01*
X291339Y260669D02*
X323661D01*
X329609Y266617D01*
X262490Y283159D02*
X312903D01*
X329685Y296634D02*
X330709Y297657D01*
X312903Y283159D02*
X326378Y296634D01*
X243110Y263779D02*
X262490Y283159D01*
X326378Y296634D02*
X329685D01*
X403117Y147638D02*
X403543D01*
X379921Y145669D02*
X401149D01*
X403117Y147638D01*
X379921Y133858D02*
Y145669D01*
X305398Y149449D02*
X316429Y160480D01*
X362163D01*
X376579Y146064D01*
X231457Y149449D02*
X305398D01*
X218701Y162205D02*
X231457Y149449D01*
X217520Y166339D02*
X218701Y165157D01*
X376579Y146064D02*
X379526D01*
X218701Y162205D02*
Y165157D01*
X379526Y146064D02*
X379921Y145669D01*
X214567Y166339D02*
X217520D01*
X323051Y135433D02*
X324626Y133858D01*
X332677D01*
X291339Y130748D02*
X306184D01*
X310869Y135433D02*
X323051D01*
X306184Y130748D02*
X310869Y135433D01*
X332677Y133858D02*
Y145669D01*
D63*
X485295Y280709D02*
Y294094D01*
Y280709D02*
X492677D01*
X524370Y249016D01*
Y248780D02*
Y249016D01*
X507874Y232283D02*
X524370Y248780D01*
X507874Y222205D02*
Y232283D01*
Y222205D02*
X524370Y205709D01*
D64*
X695669Y252756D02*
D03*
X718110D02*
D03*
X695669Y230315D02*
D03*
X718110D02*
D03*
X341772Y248031D02*
D03*
Y185039D02*
D03*
X524370Y249016D02*
D03*
Y227362D02*
D03*
Y205709D02*
D03*
Y184055D02*
D03*
D65*
X639764Y283465D02*
D03*
X620079D02*
D03*
X564567Y302165D02*
D03*
X561417Y272638D02*
D03*
X403543Y285433D02*
D03*
X462598D02*
D03*
X403543Y147638D02*
D03*
X462598D02*
D03*
D66*
X633858Y201772D02*
D03*
Y231299D02*
D03*
X566929Y209646D02*
D03*
Y239173D02*
D03*
X139764Y177165D02*
D03*
Y265748D02*
D03*
X177165Y217520D02*
D03*
Y306102D02*
D03*
D67*
X341772Y221969D02*
D03*
Y211102D02*
D03*
Y200276D02*
D03*
D68*
X291339Y172047D02*
D03*
Y301969D02*
D03*
Y260669D02*
D03*
Y130748D02*
D03*
D69*
X344488Y133858D02*
D03*
X356299D02*
D03*
X368110D02*
D03*
X332677D02*
D03*
X368110Y145669D02*
D03*
X356299D02*
D03*
X344488D02*
D03*
X379921D02*
D03*
Y133858D02*
D03*
X681102Y289370D02*
D03*
X692913Y301181D02*
D03*
X681102D02*
D03*
X500000Y143701D02*
D03*
X488189Y131890D02*
D03*
X500000D02*
D03*
D70*
X332677Y145669D02*
D03*
X692913Y289370D02*
D03*
X488189Y143701D02*
D03*
D71*
X538327Y280709D02*
D03*
Y294094D02*
D03*
X485295Y280709D02*
D03*
Y294094D02*
D03*
D72*
X728346Y295276D02*
D03*
Y137795D02*
D03*
D73*
X559055Y265748D02*
D03*
X564961D02*
D03*
X618110Y269685D02*
D03*
X624016D02*
D03*
X590551Y133858D02*
D03*
Y141732D02*
D03*
X545276Y149606D02*
D03*
X537402D02*
D03*
X596457Y133858D02*
D03*
Y141732D02*
D03*
X537402Y155512D02*
D03*
X545276D02*
D03*
X204724Y259842D02*
D03*
X220472Y124016D02*
D03*
X297244Y242126D02*
D03*
X468504Y250000D02*
D03*
X460630D02*
D03*
M02*
