M48
;Layer_Color=9474304
;FILE_FORMAT=2:5
INCH,TZ
;TYPE=PLATED
T01F00S00C0.01968
T02F00S00C0.03543
T03F00S00C0.03937
T04F00S00C0.04016
T05F00S00C0.04331
T06F00S00C0.05906
T07F00S00C0.06496
T08F00S00C0.07283
T09F00S00C0.08268
T10F00S00C0.09055
T11F00S00C0.09843
T12F00S00C0.12205
T13F00S00C0.16929
;TYPE=NON_PLATED
T14F00S00C0.04016
T15F00S00C0.16929
%
T01
X220472Y124016
X537402Y149606
Y155512
X545276
Y149606
X590551Y141732
X596457
Y133858
X590551
X564961Y265748
X559055
X618110Y269685
X624016
X468504Y250000
X460630
X297244Y242126
X204724Y259842
T02
X639764Y283465
X620079
X561417Y272638
X564567Y302165
T03
X403543Y147638
X462598
Y285433
X403543
T04
X332677Y133858
Y145669
X344488
Y133858
X356299
Y145669
X368110
Y133858
X379921
Y145669
X488189Y143701
X500000
Y131890
X488189
X681102Y289370
X692913
Y301181
X681102
T05
X633858Y201772
Y231299
X566929Y239173
Y209646
X177165Y217520
Y306102
X139764Y265748
Y177165
T06
X341772Y200276
Y211102
Y221969
T07
X485295Y280709
Y294094
X538327
Y280709
T08
X695669Y230315
Y252756
X718110
Y230315
T09
X341772Y185039
Y248031
T10
X524370Y184055
Y205709
Y227362
Y249016
T11
X291339Y130748
Y172047
Y260669
Y301969
T12
X675315Y229035
X738465
T13
X728346Y137795
Y295276
T14
X320866Y130157
X391732
X476378Y128189
X511811
X669291Y304882
X704724
T15
X137795Y137795
X562992
X366142Y295276
X137795
M30
