G04*
G04 #@! TF.GenerationSoftware,Altium Limited,Altium Designer,24.3.1 (35)*
G04*
G04 Layer_Physical_Order=2*
G04 Layer_Color=39423*
%FSLAX25Y25*%
%MOIN*%
G70*
G04*
G04 #@! TF.SameCoordinates,FD519535-7E5F-4FBF-A31B-089F6CA01B13*
G04*
G04*
G04 #@! TF.FilePolarity,Positive*
G04*
G01*
G75*
%ADD11C,0.00984*%
%ADD12C,0.01968*%
%ADD35C,0.12205*%
%ADD63C,0.11811*%
%ADD64C,0.11811*%
%ADD65C,0.05512*%
%ADD66C,0.06496*%
%ADD69C,0.06000*%
%ADD70R,0.06000X0.06000*%
%ADD72C,0.36417*%
%ADD73C,0.03937*%
G36*
X746827Y119314D02*
X584646D01*
Y147638D01*
X675197D01*
Y222933D01*
X675916D01*
X677095Y223168D01*
X678205Y223628D01*
X679205Y224295D01*
X680055Y225145D01*
X680723Y226145D01*
X681183Y227255D01*
X681417Y228434D01*
Y229637D01*
X681183Y230815D01*
X680723Y231926D01*
X680055Y232926D01*
X679205Y233775D01*
X678205Y234443D01*
X677095Y234903D01*
X675916Y235138D01*
X675197D01*
Y282600D01*
X675697Y282867D01*
X675964Y282688D01*
X676543Y282573D01*
X687630D01*
X687630Y282573D01*
X688209Y282688D01*
X688700Y283016D01*
X690754Y285071D01*
X697213D01*
Y293669D01*
X688614D01*
Y287211D01*
X687003Y285600D01*
X684119D01*
X683912Y286100D01*
X684543Y286730D01*
X685109Y287711D01*
X685402Y288804D01*
Y289936D01*
X685109Y291030D01*
X684543Y292010D01*
X683742Y292810D01*
X682762Y293376D01*
X681668Y293669D01*
X680536D01*
X679443Y293376D01*
X678463Y292810D01*
X677662Y292010D01*
X677096Y291030D01*
X676933Y290421D01*
X676431D01*
X675197Y291655D01*
Y313756D01*
X746827D01*
Y119314D01*
D02*
G37*
G36*
X627953Y261811D02*
X651575Y238189D01*
Y208661D01*
X635827Y192913D01*
X570866D01*
X549213Y171260D01*
Y145669D01*
X533464D01*
Y175197D01*
X533465Y187008D01*
X566929Y220472D01*
X610236D01*
X612205Y222441D01*
Y289325D01*
X627953D01*
Y261811D01*
D02*
G37*
%LPC*%
G36*
X705124Y306890D02*
X704325D01*
X703587Y306584D01*
X703022Y306019D01*
X702716Y305281D01*
Y304483D01*
X703022Y303745D01*
X703587Y303180D01*
X704325Y302874D01*
X705124D01*
X705862Y303180D01*
X706427Y303745D01*
X706732Y304483D01*
Y305281D01*
X706427Y306019D01*
X705862Y306584D01*
X705124Y306890D01*
D02*
G37*
G36*
X693479Y305480D02*
X692347D01*
X691254Y305187D01*
X690274Y304621D01*
X689473Y303821D01*
X688907Y302840D01*
X688614Y301747D01*
Y300615D01*
X688907Y299522D01*
X689473Y298541D01*
X690274Y297741D01*
X691254Y297175D01*
X692347Y296882D01*
X693479D01*
X694573Y297175D01*
X695553Y297741D01*
X696354Y298541D01*
X696920Y299522D01*
X697213Y300615D01*
Y301747D01*
X696920Y302840D01*
X696354Y303821D01*
X695553Y304621D01*
X694573Y305187D01*
X693479Y305480D01*
D02*
G37*
G36*
X718820Y259961D02*
X717401D01*
X716009Y259684D01*
X714698Y259141D01*
X713518Y258352D01*
X712514Y257349D01*
X711726Y256169D01*
X711182Y254857D01*
X710906Y253466D01*
Y252046D01*
X711182Y250654D01*
X711726Y249343D01*
X712514Y248163D01*
X713518Y247160D01*
X714698Y246371D01*
X716009Y245828D01*
X717401Y245551D01*
X718820D01*
X720212Y245828D01*
X721523Y246371D01*
X722703Y247160D01*
X723706Y248163D01*
X724495Y249343D01*
X725038Y250654D01*
X725315Y252046D01*
Y253466D01*
X725038Y254857D01*
X724495Y256169D01*
X723706Y257349D01*
X722703Y258352D01*
X721523Y259141D01*
X720212Y259684D01*
X718820Y259961D01*
D02*
G37*
G36*
Y237520D02*
X717401D01*
X716009Y237243D01*
X714698Y236700D01*
X713518Y235911D01*
X712514Y234908D01*
X711726Y233728D01*
X711182Y232417D01*
X710906Y231025D01*
Y229605D01*
X711182Y228213D01*
X711726Y226902D01*
X712514Y225722D01*
X713518Y224719D01*
X714698Y223930D01*
X716009Y223387D01*
X717401Y223110D01*
X718820D01*
X720212Y223387D01*
X721523Y223930D01*
X722703Y224719D01*
X723706Y225722D01*
X724495Y226902D01*
X725038Y228213D01*
X725315Y229605D01*
Y231025D01*
X725038Y232417D01*
X724495Y233728D01*
X723706Y234908D01*
X722703Y235911D01*
X721523Y236700D01*
X720212Y237243D01*
X718820Y237520D01*
D02*
G37*
G36*
X739066Y235138D02*
X737863D01*
X736685Y234903D01*
X735574Y234443D01*
X734575Y233775D01*
X733724Y232926D01*
X733057Y231926D01*
X732597Y230815D01*
X732362Y229637D01*
Y228434D01*
X732597Y227255D01*
X733057Y226145D01*
X733724Y225145D01*
X734575Y224295D01*
X735574Y223628D01*
X736685Y223168D01*
X737863Y222933D01*
X739066D01*
X740244Y223168D01*
X741355Y223628D01*
X742355Y224295D01*
X743205Y225145D01*
X743872Y226145D01*
X744332Y227255D01*
X744567Y228434D01*
Y229637D01*
X744332Y230815D01*
X743872Y231926D01*
X743205Y232926D01*
X742355Y233775D01*
X741355Y234443D01*
X740244Y234903D01*
X739066Y235138D01*
D02*
G37*
G36*
X634457Y235846D02*
X633260D01*
X632103Y235537D01*
X631066Y234938D01*
X630220Y234091D01*
X629621Y233054D01*
X629311Y231898D01*
Y230701D01*
X629621Y229544D01*
X630220Y228507D01*
X631066Y227660D01*
X632103Y227062D01*
X633260Y226752D01*
X634457D01*
X635613Y227062D01*
X636650Y227660D01*
X637497Y228507D01*
X638096Y229544D01*
X638406Y230701D01*
Y231898D01*
X638096Y233054D01*
X637497Y234091D01*
X636650Y234938D01*
X635613Y235537D01*
X634457Y235846D01*
D02*
G37*
%LPD*%
D11*
X541665Y130905D02*
X536417D01*
X541665Y136153D01*
Y137465D01*
X540353Y138777D01*
X537729D01*
X536417Y137465D01*
D12*
X679549Y288908D02*
X680011Y289370D01*
X675805Y288908D02*
X679549D01*
X671405Y293307D02*
X675805Y288908D01*
X560279Y293307D02*
X671405D01*
X561302Y290839D02*
X669791D01*
X558967Y288504D02*
X561302Y290839D01*
X557944Y290972D02*
X560279Y293307D01*
X669791Y290839D02*
X672126Y288504D01*
X480804Y268206D02*
X538669D01*
X468504Y250000D02*
Y255906D01*
X480804Y268206D01*
X461007Y250377D02*
Y252345D01*
X479336Y270674D02*
X537646D01*
X460630Y250000D02*
X461007Y250377D01*
Y252345D02*
X479336Y270674D01*
X676543Y284087D02*
X687630D01*
X672126Y288504D02*
X676543Y284087D01*
X687630D02*
X692913Y289370D01*
X680011D02*
X681102D01*
X537646Y270674D02*
X557944Y290972D01*
X538669Y268206D02*
X558967Y288504D01*
D35*
X738465Y229035D02*
D03*
X675315D02*
D03*
D63*
X561417Y264173D02*
Y272638D01*
X524606Y227362D02*
X561417Y264173D01*
X524370Y227126D02*
Y227362D01*
X507874Y210630D02*
X524370Y227126D01*
X507874Y200551D02*
X524370Y184055D01*
X507874Y200551D02*
Y210630D01*
X524370Y227362D02*
X524606D01*
D64*
X695669Y252756D02*
D03*
Y230315D02*
D03*
X524370Y227362D02*
D03*
Y184055D02*
D03*
D65*
X620079Y283465D02*
D03*
X561417Y272638D02*
D03*
D66*
X633858Y201772D02*
D03*
X566929Y209646D02*
D03*
D69*
X681102Y289370D02*
D03*
Y301181D02*
D03*
D70*
X692913Y289370D02*
D03*
D72*
X728346Y295276D02*
D03*
Y137795D02*
D03*
D73*
X559055Y265748D02*
D03*
X564961D02*
D03*
X618110Y269685D02*
D03*
X624016D02*
D03*
X590551Y133858D02*
D03*
Y141732D02*
D03*
X545276Y149606D02*
D03*
X537402D02*
D03*
X596457Y133858D02*
D03*
Y141732D02*
D03*
X537402Y155512D02*
D03*
X545276D02*
D03*
X468504Y250000D02*
D03*
X460630D02*
D03*
M02*
