G04*
G04 #@! TF.GenerationSoftware,Altium Limited,Altium Designer,24.3.1 (35)*
G04*
G04 Layer_Physical_Order=3*
G04 Layer_Color=65280*
%FSLAX25Y25*%
%MOIN*%
G70*
G04*
G04 #@! TF.SameCoordinates,FD519535-7E5F-4FBF-A31B-089F6CA01B13*
G04*
G04*
G04 #@! TF.FilePolarity,Positive*
G04*
G01*
G75*
%ADD11C,0.00984*%
%ADD12C,0.01968*%
%ADD62C,0.03937*%
%ADD63C,0.11811*%
%ADD64C,0.11811*%
%ADD65C,0.05512*%
%ADD66C,0.06496*%
%ADD70R,0.06000X0.06000*%
%ADD71C,0.08661*%
%ADD73C,0.03937*%
D11*
X528543Y127622D02*
X529855Y128935D01*
X532479D01*
X533791Y127622D01*
Y126311D01*
X532479Y124999D01*
X531167D01*
X532479D01*
X533791Y123687D01*
Y122375D01*
X532479Y121063D01*
X529855D01*
X528543Y122375D01*
D12*
X204724Y259842D02*
X222441Y242126D01*
X297244D01*
X204724Y163386D02*
X220472Y147638D01*
Y124016D02*
Y147638D01*
X204724Y163386D02*
Y259842D01*
D62*
X403543Y216535D02*
Y285433D01*
X332677Y145669D02*
X403543Y216535D01*
D63*
X566929Y239173D02*
X574803Y231299D01*
X633858D01*
X639764Y237205D02*
Y283465D01*
X633858Y231299D02*
X639764Y237205D01*
X538327Y294094D02*
X556496D01*
X564567Y302165D01*
X538327Y280709D02*
Y294094D01*
X485295Y280709D02*
Y294094D01*
X492677Y280709D02*
X524370Y249016D01*
X485295Y280709D02*
X492677D01*
X507874Y232520D02*
X524370Y249016D01*
X507874Y222205D02*
Y232520D01*
Y222205D02*
X524370Y205709D01*
D64*
Y249016D02*
D03*
Y205709D02*
D03*
D65*
X639764Y283465D02*
D03*
X564567Y302165D02*
D03*
X403543Y285433D02*
D03*
D66*
X633858Y231299D02*
D03*
X566929Y239173D02*
D03*
D70*
X332677Y145669D02*
D03*
D71*
X538327Y280709D02*
D03*
Y294094D02*
D03*
X485295Y280709D02*
D03*
Y294094D02*
D03*
D73*
X204724Y259842D02*
D03*
X220472Y124016D02*
D03*
X297244Y242126D02*
D03*
M02*
