G04*
G04 #@! TF.GenerationSoftware,Altium Limited,Altium Designer,24.3.1 (35)*
G04*
G04 Layer_Color=65535*
%FSLAX25Y25*%
%MOIN*%
G70*
G04*
G04 #@! TF.SameCoordinates,FD519535-7E5F-4FBF-A31B-089F6CA01B13*
G04*
G04*
G04 #@! TF.FilePolarity,Positive*
G04*
G01*
G75*
%ADD10C,0.00787*%
%ADD11C,0.00984*%
%ADD12C,0.01968*%
%ADD13C,0.00591*%
%ADD14C,0.01575*%
%ADD15C,0.01000*%
%ADD16C,0.00630*%
%ADD17C,0.00500*%
D10*
X656496Y283465D02*
X656477Y284464D01*
X656421Y285462D01*
X656327Y286458D01*
X656196Y287449D01*
X656027Y288434D01*
X655822Y289413D01*
X655580Y290383D01*
X655301Y291343D01*
X654987Y292292D01*
X654637Y293229D01*
X654252Y294152D01*
X653833Y295059D01*
X653380Y295951D01*
X652894Y296824D01*
X652375Y297679D01*
X651825Y298513D01*
X651243Y299326D01*
X650631Y300117D01*
X649990Y300885D01*
X649321Y301627D01*
X648624Y302344D01*
X647900Y303034D01*
X647152Y303696D01*
X646379Y304330D01*
X645582Y304935D01*
X644763Y305508D01*
X643924Y306051D01*
X643064Y306562D01*
X642186Y307040D01*
X641291Y307485D01*
X640379Y307895D01*
X639453Y308271D01*
X638513Y308612D01*
X637561Y308918D01*
X636598Y309187D01*
X635626Y309420D01*
X634645Y309616D01*
X633658Y309775D01*
X632666Y309897D01*
X631670Y309982D01*
X630671Y310029D01*
X629671Y310038D01*
X628672Y310010D01*
X627674Y309944D01*
X626680Y309841D01*
X625690Y309700D01*
X624706Y309523D01*
X623730Y309308D01*
X622762Y309057D01*
X621804Y308769D01*
X620858Y308446D01*
X619925Y308088D01*
X619006Y307694D01*
X618102Y307266D01*
X617215Y306805D01*
X616346Y306311D01*
X615497Y305784D01*
X614667Y305225D01*
X613860Y304636D01*
X613074Y304017D01*
X612313Y303369D01*
X611577Y302693D01*
X610867Y301989D01*
X610183Y301259D01*
X609528Y300504D01*
X608902Y299725D01*
X608305Y298923D01*
X607739Y298099D01*
X607204Y297254D01*
X606701Y296390D01*
X606232Y295507D01*
X605795Y294607D01*
X605393Y293692D01*
X605026Y292762D01*
X604694Y291819D01*
X604397Y290864D01*
X604137Y289899D01*
X603913Y288925D01*
X603726Y287943D01*
X603577Y286954D01*
X603464Y285961D01*
X603389Y284964D01*
X603351Y283964D01*
Y282965D01*
X603389Y281966D01*
X603464Y280969D01*
X603577Y279975D01*
X603726Y278987D01*
X603913Y278005D01*
X604137Y277030D01*
X604397Y276065D01*
X604694Y275110D01*
X605026Y274167D01*
X605393Y273237D01*
X605795Y272322D01*
X606232Y271422D01*
X606701Y270540D01*
X607204Y269675D01*
X607739Y268831D01*
X608305Y268007D01*
X608902Y267204D01*
X609528Y266425D01*
X610183Y265670D01*
X610867Y264940D01*
X611577Y264237D01*
X612313Y263560D01*
X613074Y262912D01*
X613859Y262293D01*
X614667Y261704D01*
X615496Y261145D01*
X616346Y260619D01*
X617215Y260124D01*
X618102Y259663D01*
X619006Y259235D01*
X619925Y258842D01*
X620858Y258483D01*
X621804Y258160D01*
X622762Y257872D01*
X623730Y257621D01*
X624706Y257406D01*
X625690Y257229D01*
X626680Y257088D01*
X627674Y256985D01*
X628672Y256919D01*
X629671Y256891D01*
X630671Y256900D01*
X631670Y256947D01*
X632666Y257032D01*
X633658Y257154D01*
X634645Y257313D01*
X635626Y257509D01*
X636598Y257742D01*
X637561Y258012D01*
X638513Y258317D01*
X639453Y258658D01*
X640379Y259034D01*
X641291Y259445D01*
X642186Y259889D01*
X643064Y260367D01*
X643924Y260878D01*
X644763Y261421D01*
X645582Y261995D01*
X646379Y262599D01*
X647152Y263233D01*
X647900Y263895D01*
X648624Y264585D01*
X649321Y265302D01*
X649990Y266045D01*
X650631Y266812D01*
X651243Y267603D01*
X651825Y268416D01*
X652375Y269250D01*
X652894Y270105D01*
X653380Y270979D01*
X653833Y271870D01*
X654252Y272778D01*
X654637Y273700D01*
X654987Y274637D01*
X655301Y275586D01*
X655580Y276546D01*
X655822Y277516D01*
X656027Y278495D01*
X656196Y279480D01*
X656327Y280471D01*
X656421Y281467D01*
X656477Y282465D01*
X656496Y283465D01*
X666339Y216535D02*
X666323Y217536D01*
X666277Y218535D01*
X666200Y219532D01*
X666092Y220527D01*
X665954Y221518D01*
X665786Y222504D01*
X665587Y223484D01*
X665358Y224458D01*
X665099Y225424D01*
X664810Y226382D01*
X664492Y227330D01*
X664145Y228269D01*
X663770Y229196D01*
X663366Y230111D01*
X662933Y231013D01*
X662474Y231902D01*
X661987Y232776D01*
X661474Y233634D01*
X660934Y234476D01*
X660369Y235302D01*
X659778Y236109D01*
X659163Y236898D01*
X658524Y237668D01*
X657862Y238417D01*
X657176Y239146D01*
X656469Y239853D01*
X655740Y240539D01*
X654991Y241201D01*
X654221Y241840D01*
X653432Y242455D01*
X652625Y243046D01*
X651799Y243611D01*
X650957Y244151D01*
X650098Y244664D01*
X649225Y245151D01*
X648336Y245611D01*
X647434Y246043D01*
X646519Y246447D01*
X645591Y246822D01*
X644653Y247169D01*
X643705Y247487D01*
X642747Y247776D01*
X641781Y248035D01*
X640807Y248264D01*
X639826Y248463D01*
X638840Y248631D01*
X637850Y248770D01*
X636855Y248877D01*
X635858Y248954D01*
X634859Y249000D01*
X633858Y249016D01*
X632858Y249000D01*
X631859Y248954D01*
X630861Y248877D01*
X629867Y248769D01*
X628876Y248631D01*
X627890Y248463D01*
X626910Y248264D01*
X625936Y248035D01*
X624970Y247776D01*
X624012Y247487D01*
X623063Y247169D01*
X622125Y246822D01*
X621198Y246447D01*
X620283Y246043D01*
X619381Y245611D01*
X618492Y245151D01*
X617618Y244664D01*
X616759Y244151D01*
X615917Y243611D01*
X615092Y243046D01*
X614285Y242455D01*
X613495Y241840D01*
X612726Y241201D01*
X611976Y240539D01*
X611248Y239853D01*
X610540Y239146D01*
X609855Y238417D01*
X609193Y237668D01*
X608553Y236898D01*
X607938Y236109D01*
X607348Y235302D01*
X606783Y234476D01*
X606243Y233634D01*
X605729Y232775D01*
X605243Y231902D01*
X604783Y231013D01*
X604351Y230111D01*
X603947Y229196D01*
X603571Y228269D01*
X603224Y227330D01*
X602906Y226382D01*
X602618Y225424D01*
X602359Y224458D01*
X602130Y223484D01*
X601931Y222504D01*
X601762Y221517D01*
X601624Y220527D01*
X601516Y219532D01*
X601440Y218535D01*
X601393Y217535D01*
X601378Y216535D01*
X601393Y215535D01*
X601440Y214536D01*
X601516Y213538D01*
X601624Y212544D01*
X601762Y211553D01*
X601931Y210567D01*
X602130Y209587D01*
X602359Y208613D01*
X602618Y207647D01*
X602907Y206689D01*
X603224Y205740D01*
X603571Y204802D01*
X603947Y203875D01*
X604351Y202960D01*
X604783Y202058D01*
X605243Y201169D01*
X605730Y200295D01*
X606243Y199437D01*
X606783Y198594D01*
X607348Y197769D01*
X607938Y196961D01*
X608554Y196173D01*
X609193Y195403D01*
X609855Y194653D01*
X610540Y193925D01*
X611248Y193217D01*
X611977Y192532D01*
X612726Y191870D01*
X613496Y191230D01*
X614285Y190615D01*
X615092Y190025D01*
X615917Y189460D01*
X616760Y188920D01*
X617618Y188407D01*
X618492Y187920D01*
X619381Y187460D01*
X620283Y187028D01*
X621198Y186624D01*
X622125Y186248D01*
X623064Y185901D01*
X624012Y185583D01*
X624970Y185295D01*
X625936Y185036D01*
X626910Y184807D01*
X627890Y184608D01*
X628876Y184440D01*
X629867Y184301D01*
X630862Y184194D01*
X631859Y184117D01*
X632858Y184071D01*
X633858Y184055D01*
X634859Y184071D01*
X635858Y184117D01*
X636855Y184194D01*
X637850Y184301D01*
X638841Y184440D01*
X639827Y184608D01*
X640807Y184807D01*
X641781Y185036D01*
X642747Y185295D01*
X643705Y185584D01*
X644654Y185902D01*
X645592Y186249D01*
X646519Y186624D01*
X647434Y187028D01*
X648336Y187460D01*
X649225Y187920D01*
X650099Y188407D01*
X650957Y188920D01*
X651799Y189460D01*
X652625Y190025D01*
X653432Y190616D01*
X654221Y191231D01*
X654991Y191870D01*
X655740Y192532D01*
X656469Y193218D01*
X657176Y193925D01*
X657862Y194654D01*
X658524Y195403D01*
X659163Y196173D01*
X659778Y196962D01*
X660369Y197769D01*
X660934Y198595D01*
X661474Y199437D01*
X661987Y200295D01*
X662474Y201169D01*
X662934Y202058D01*
X663366Y202960D01*
X663770Y203875D01*
X664145Y204802D01*
X664492Y205741D01*
X664810Y206689D01*
X665099Y207647D01*
X665358Y208613D01*
X665587Y209587D01*
X665786Y210567D01*
X665954Y211554D01*
X666092Y212544D01*
X666200Y213539D01*
X666277Y214536D01*
X666323Y215535D01*
X666339Y216535D01*
X599409Y224409D02*
X599394Y225410D01*
X599348Y226409D01*
X599271Y227406D01*
X599163Y228401D01*
X599025Y229392D01*
X598856Y230378D01*
X598658Y231358D01*
X598428Y232332D01*
X598170Y233298D01*
X597881Y234256D01*
X597563Y235204D01*
X597216Y236143D01*
X596840Y237070D01*
X596436Y237985D01*
X596004Y238887D01*
X595545Y239776D01*
X595058Y240650D01*
X594544Y241508D01*
X594005Y242350D01*
X593439Y243176D01*
X592849Y243983D01*
X592234Y244772D01*
X591595Y245542D01*
X590932Y246291D01*
X590247Y247020D01*
X589540Y247727D01*
X588811Y248413D01*
X588061Y249075D01*
X587292Y249714D01*
X586503Y250329D01*
X585695Y250920D01*
X584870Y251485D01*
X584028Y252025D01*
X583169Y252538D01*
X582295Y253025D01*
X581407Y253485D01*
X580505Y253917D01*
X579590Y254321D01*
X578662Y254696D01*
X577724Y255043D01*
X576776Y255361D01*
X575818Y255650D01*
X574852Y255909D01*
X573878Y256138D01*
X572897Y256337D01*
X571911Y256505D01*
X570921Y256644D01*
X569926Y256751D01*
X568929Y256828D01*
X567929Y256874D01*
X566929Y256890D01*
X565929Y256874D01*
X564930Y256828D01*
X563932Y256751D01*
X562938Y256644D01*
X561947Y256505D01*
X560961Y256337D01*
X559980Y256138D01*
X559007Y255909D01*
X558040Y255650D01*
X557083Y255361D01*
X556134Y255043D01*
X555196Y254696D01*
X554269Y254321D01*
X553354Y253917D01*
X552451Y253485D01*
X551563Y253025D01*
X550689Y252538D01*
X549830Y252025D01*
X548988Y251485D01*
X548163Y250920D01*
X547355Y250329D01*
X546566Y249714D01*
X545797Y249075D01*
X545047Y248413D01*
X544318Y247727D01*
X543611Y247020D01*
X542926Y246291D01*
X542263Y245542D01*
X541624Y244772D01*
X541009Y243983D01*
X540419Y243176D01*
X539853Y242350D01*
X539314Y241508D01*
X538800Y240650D01*
X538313Y239776D01*
X537854Y238887D01*
X537422Y237985D01*
X537018Y237070D01*
X536642Y236143D01*
X536295Y235204D01*
X535977Y234256D01*
X535689Y233298D01*
X535430Y232332D01*
X535201Y231358D01*
X535002Y230378D01*
X534833Y229392D01*
X534695Y228401D01*
X534587Y227406D01*
X534510Y226409D01*
X534464Y225410D01*
X534449Y224409D01*
X534464Y223409D01*
X534510Y222410D01*
X534587Y221412D01*
X534695Y220418D01*
X534833Y219427D01*
X535002Y218441D01*
X535201Y217461D01*
X535430Y216487D01*
X535689Y215521D01*
X535977Y214563D01*
X536295Y213614D01*
X536642Y212676D01*
X537018Y211749D01*
X537422Y210834D01*
X537854Y209932D01*
X538314Y209043D01*
X538800Y208169D01*
X539314Y207311D01*
X539854Y206468D01*
X540419Y205643D01*
X541009Y204836D01*
X541624Y204047D01*
X542264Y203277D01*
X542926Y202527D01*
X543611Y201799D01*
X544319Y201091D01*
X545047Y200406D01*
X545797Y199744D01*
X546567Y199104D01*
X547356Y198489D01*
X548163Y197899D01*
X548988Y197334D01*
X549831Y196794D01*
X550689Y196281D01*
X551563Y195794D01*
X552452Y195334D01*
X553354Y194902D01*
X554269Y194498D01*
X555196Y194122D01*
X556134Y193775D01*
X557083Y193457D01*
X558041Y193169D01*
X559007Y192910D01*
X559981Y192681D01*
X560961Y192482D01*
X561947Y192314D01*
X562938Y192175D01*
X563932Y192068D01*
X564930Y191991D01*
X565929Y191945D01*
X566929Y191929D01*
X567930Y191945D01*
X568929Y191991D01*
X569926Y192068D01*
X570921Y192175D01*
X571912Y192314D01*
X572898Y192482D01*
X573878Y192681D01*
X574852Y192910D01*
X575818Y193169D01*
X576776Y193458D01*
X577724Y193776D01*
X578663Y194123D01*
X579590Y194498D01*
X580505Y194902D01*
X581407Y195334D01*
X582296Y195794D01*
X583170Y196281D01*
X584028Y196794D01*
X584870Y197334D01*
X585696Y197899D01*
X586503Y198490D01*
X587292Y199105D01*
X588062Y199744D01*
X588811Y200406D01*
X589540Y201092D01*
X590247Y201799D01*
X590933Y202528D01*
X591595Y203277D01*
X592234Y204047D01*
X592849Y204836D01*
X593440Y205643D01*
X594005Y206469D01*
X594545Y207311D01*
X595058Y208170D01*
X595545Y209044D01*
X596004Y209932D01*
X596437Y210834D01*
X596840Y211749D01*
X597216Y212677D01*
X597563Y213615D01*
X597881Y214563D01*
X598170Y215521D01*
X598428Y216487D01*
X598658Y217461D01*
X598856Y218442D01*
X599025Y219428D01*
X599163Y220418D01*
X599271Y221413D01*
X599348Y222410D01*
X599394Y223410D01*
X599409Y224409D01*
X316142Y145669D02*
X315354D01*
X316142D01*
X710236Y289370D02*
X709449D01*
X710236D01*
X471654Y143701D02*
X470866D01*
X471654D01*
X532677Y166142D02*
Y180315D01*
X553937Y166142D02*
Y180315D01*
X577559Y166142D02*
Y180315D01*
X556299Y166142D02*
Y180315D01*
X601181Y166142D02*
Y180315D01*
X579921Y166142D02*
Y180315D01*
X611024Y152756D02*
X625197D01*
X611024Y174016D02*
X625197D01*
X611024Y129134D02*
X625197D01*
X611024Y150394D02*
X625197D01*
X594488Y301575D02*
X599016D01*
X594488Y273228D02*
X599016D01*
X574213Y301575D02*
X578740D01*
X574213Y273228D02*
X578740D01*
X599016D02*
Y301575D01*
X574213Y273228D02*
Y301575D01*
X552953Y262795D02*
Y312008D01*
X573032D01*
Y262795D02*
Y312008D01*
X552953Y262795D02*
X573032D01*
X636024Y175394D02*
X649409D01*
X665551D02*
X678937D01*
X665551Y132480D02*
X678937D01*
X636024D02*
X649409D01*
X636024D02*
Y175394D01*
X678937Y132480D02*
Y175394D01*
X681102Y160236D02*
X684252D01*
X681102Y126378D02*
Y160236D01*
Y126378D02*
X684252D01*
X681102Y143307D02*
X695276D01*
X692126Y126378D02*
X695276D01*
Y160236D01*
X692126D02*
X695276D01*
X343110Y271260D02*
Y299606D01*
X318307Y271260D02*
Y299606D01*
X338583D02*
X343110D01*
X338583Y271260D02*
X343110D01*
X318307Y299606D02*
X322835D01*
X318307Y271260D02*
X322835D01*
X197638Y300394D02*
X200787D01*
X197638Y266535D02*
Y300394D01*
Y266535D02*
X200787D01*
X197638Y283465D02*
X211811D01*
X208661Y266535D02*
X211811D01*
Y300394D01*
X208661D02*
X211811D01*
X304331Y209449D02*
Y223622D01*
X325590Y209449D02*
Y223622D01*
X280709Y209449D02*
Y223622D01*
X301969Y209449D02*
Y223622D01*
X257087Y209449D02*
Y223622D01*
X278346Y209449D02*
Y223622D01*
X233465Y209449D02*
Y223622D01*
X254724Y209449D02*
Y223622D01*
X209842Y209449D02*
Y223622D01*
X231102Y209449D02*
Y223622D01*
X218504Y196063D02*
X221654D01*
Y162205D02*
Y196063D01*
X218504Y162205D02*
X221654D01*
X207480Y179134D02*
X221654D01*
X207480Y162205D02*
X210630D01*
X207480D02*
Y196063D01*
X210630D01*
X173425Y128937D02*
Y133268D01*
X170472Y128937D02*
X173425D01*
X161221D02*
Y133268D01*
Y128937D02*
X164173D01*
X202756Y161614D02*
Y177362D01*
X163386Y161614D02*
X202756D01*
X163386D02*
Y177362D01*
X318110Y125866D02*
Y155905D01*
X394488D01*
X318110Y125866D02*
X394488D01*
Y155905D01*
X707480Y279134D02*
Y309173D01*
X666535Y279134D02*
X707480D01*
X666535Y309173D02*
X707480D01*
X666535Y279134D02*
Y309173D01*
X700787Y204921D02*
X705315D01*
X700787Y164370D02*
Y204921D01*
Y164370D02*
X705315D01*
X473622Y123898D02*
Y153937D01*
X514567D01*
X473622Y123898D02*
X514567D01*
Y153937D01*
D11*
X339665Y302165D02*
X338927Y302592D01*
Y301739D01*
X339665Y302165D01*
X175295Y136024D02*
X174557Y136450D01*
Y135597D01*
X175295Y136024D01*
X164823Y142717D02*
X164085Y143143D01*
Y142290D01*
X164823Y142717D01*
X581201Y137795D02*
X581173Y138798D01*
X581090Y139798D01*
X580952Y140792D01*
X580760Y141777D01*
X580514Y142750D01*
X580214Y143708D01*
X579862Y144647D01*
X579459Y145566D01*
X579006Y146462D01*
X578504Y147331D01*
X577956Y148171D01*
X577361Y148979D01*
X576723Y149754D01*
X576044Y150492D01*
X575324Y151192D01*
X574568Y151851D01*
X573776Y152467D01*
X572951Y153039D01*
X572096Y153564D01*
X571214Y154042D01*
X570306Y154470D01*
X569377Y154848D01*
X568428Y155174D01*
X567462Y155447D01*
X566483Y155666D01*
X565493Y155831D01*
X564496Y155942D01*
X563494Y155997D01*
X562490D01*
X561488Y155942D01*
X560491Y155831D01*
X559501Y155666D01*
X558522Y155447D01*
X557557Y155174D01*
X556607Y154848D01*
X555678Y154470D01*
X554770Y154042D01*
X553888Y153564D01*
X553033Y153039D01*
X552208Y152467D01*
X551416Y151851D01*
X550660Y151192D01*
X549940Y150492D01*
X549261Y149754D01*
X548623Y148979D01*
X548029Y148171D01*
X547480Y147331D01*
X546978Y146462D01*
X546525Y145566D01*
X546122Y144647D01*
X545770Y143708D01*
X545471Y142750D01*
X545224Y141777D01*
X545032Y140792D01*
X544894Y139798D01*
X544811Y138798D01*
X544783Y137795D01*
X544811Y136792D01*
X544894Y135792D01*
X545032Y134798D01*
X545224Y133813D01*
X545471Y132841D01*
X545770Y131883D01*
X546122Y130943D01*
X546525Y130024D01*
X546978Y129129D01*
X547480Y128260D01*
X548029Y127420D01*
X548623Y126611D01*
X549261Y125837D01*
X549940Y125098D01*
X550660Y124399D01*
X551416Y123740D01*
X552208Y123123D01*
X553033Y122552D01*
X553888Y122026D01*
X554770Y121548D01*
X555678Y121120D01*
X556607Y120743D01*
X557557Y120417D01*
X558522Y120144D01*
X559501Y119924D01*
X560491Y119759D01*
X561488Y119649D01*
X562490Y119594D01*
X563494Y119594D01*
X564496Y119649D01*
X565493Y119759D01*
X566483Y119924D01*
X567462Y120144D01*
X568428Y120417D01*
X569377Y120743D01*
X570306Y121120D01*
X571214Y121549D01*
X572096Y122026D01*
X572951Y122552D01*
X573776Y123123D01*
X574568Y123740D01*
X575325Y124399D01*
X576044Y125099D01*
X576723Y125837D01*
X577361Y126611D01*
X577956Y127420D01*
X578505Y128260D01*
X579006Y129129D01*
X579459Y130024D01*
X579862Y130943D01*
X580214Y131883D01*
X580514Y132841D01*
X580760Y133814D01*
X580953Y134798D01*
X581090Y135792D01*
X581173Y136792D01*
X581201Y137795D01*
X384350Y295276D02*
X384323Y296279D01*
X384240Y297279D01*
X384102Y298273D01*
X383910Y299257D01*
X383663Y300230D01*
X383364Y301188D01*
X383012Y302128D01*
X382609Y303047D01*
X382156Y303942D01*
X381654Y304811D01*
X381105Y305651D01*
X380511Y306460D01*
X379873Y307234D01*
X379193Y307972D01*
X378474Y308672D01*
X377717Y309331D01*
X376925Y309947D01*
X376101Y310519D01*
X375246Y311045D01*
X374363Y311522D01*
X373456Y311951D01*
X372526Y312328D01*
X371577Y312654D01*
X370612Y312927D01*
X369633Y313146D01*
X368643Y313312D01*
X367645Y313422D01*
X366643Y313477D01*
X365640D01*
X364638Y313422D01*
X363641Y313312D01*
X362651Y313146D01*
X361672Y312927D01*
X360706Y312654D01*
X359757Y312328D01*
X358827Y311951D01*
X357920Y311522D01*
X357037Y311045D01*
X356183Y310519D01*
X355358Y309947D01*
X354566Y309331D01*
X353809Y308672D01*
X353090Y307972D01*
X352410Y307234D01*
X351772Y306460D01*
X351178Y305651D01*
X350629Y304811D01*
X350128Y303942D01*
X349675Y303047D01*
X349271Y302128D01*
X348920Y301188D01*
X348620Y300230D01*
X348374Y299257D01*
X348181Y298273D01*
X348044Y297279D01*
X347961Y296279D01*
X347933Y295276D01*
X347961Y294272D01*
X348044Y293272D01*
X348181Y292279D01*
X348374Y291294D01*
X348620Y290321D01*
X348920Y289363D01*
X349271Y288423D01*
X349675Y287505D01*
X350128Y286609D01*
X350629Y285740D01*
X351178Y284900D01*
X351773Y284092D01*
X352411Y283317D01*
X353090Y282579D01*
X353809Y281879D01*
X354566Y281220D01*
X355358Y280604D01*
X356183Y280032D01*
X357037Y279506D01*
X357920Y279029D01*
X358827Y278601D01*
X359757Y278223D01*
X360706Y277897D01*
X361672Y277624D01*
X362651Y277405D01*
X363641Y277239D01*
X364638Y277129D01*
X365640Y277074D01*
X366644Y277074D01*
X367645Y277129D01*
X368643Y277239D01*
X369633Y277405D01*
X370612Y277624D01*
X371577Y277897D01*
X372526Y278223D01*
X373456Y278601D01*
X374364Y279029D01*
X375246Y279506D01*
X376101Y280032D01*
X376926Y280604D01*
X377717Y281220D01*
X378474Y281879D01*
X379193Y282579D01*
X379873Y283317D01*
X380511Y284092D01*
X381105Y284900D01*
X381654Y285740D01*
X382156Y286609D01*
X382609Y287505D01*
X383012Y288424D01*
X383364Y289363D01*
X383663Y290321D01*
X383910Y291294D01*
X384102Y292279D01*
X384240Y293273D01*
X384323Y294273D01*
X384350Y295276D01*
X156004D02*
X155976Y296279D01*
X155893Y297279D01*
X155756Y298273D01*
X155563Y299257D01*
X155317Y300230D01*
X155017Y301188D01*
X154666Y302128D01*
X154262Y303047D01*
X153809Y303942D01*
X153308Y304811D01*
X152759Y305651D01*
X152164Y306460D01*
X151526Y307234D01*
X150847Y307972D01*
X150128Y308672D01*
X149371Y309331D01*
X148579Y309947D01*
X147755Y310519D01*
X146900Y311045D01*
X146017Y311522D01*
X145110Y311951D01*
X144180Y312328D01*
X143231Y312654D01*
X142265Y312927D01*
X141286Y313146D01*
X140296Y313312D01*
X139299Y313422D01*
X138297Y313477D01*
X137294D01*
X136292Y313422D01*
X135294Y313312D01*
X134304Y313146D01*
X133325Y312927D01*
X132360Y312654D01*
X131411Y312328D01*
X130481Y311951D01*
X129574Y311522D01*
X128691Y311045D01*
X127836Y310519D01*
X127012Y309947D01*
X126220Y309331D01*
X125463Y308672D01*
X124744Y307972D01*
X124064Y307234D01*
X123426Y306460D01*
X122832Y305651D01*
X122283Y304811D01*
X121781Y303942D01*
X121328Y303047D01*
X120925Y302128D01*
X120573Y301188D01*
X120274Y300230D01*
X120027Y299257D01*
X119835Y298273D01*
X119697Y297279D01*
X119614Y296279D01*
X119587Y295276D01*
X119614Y294272D01*
X119697Y293272D01*
X119835Y292279D01*
X120027Y291294D01*
X120274Y290321D01*
X120573Y289363D01*
X120925Y288423D01*
X121328Y287505D01*
X121781Y286609D01*
X122283Y285740D01*
X122832Y284900D01*
X123426Y284092D01*
X124064Y283317D01*
X124744Y282579D01*
X125463Y281879D01*
X126220Y281220D01*
X127012Y280604D01*
X127836Y280032D01*
X128691Y279506D01*
X129574Y279029D01*
X130481Y278601D01*
X131411Y278223D01*
X132360Y277897D01*
X133325Y277624D01*
X134304Y277405D01*
X135294Y277239D01*
X136292Y277129D01*
X137294Y277074D01*
X138297Y277074D01*
X139299Y277129D01*
X140296Y277239D01*
X141286Y277405D01*
X142265Y277624D01*
X143231Y277897D01*
X144180Y278223D01*
X145110Y278601D01*
X146017Y279029D01*
X146900Y279506D01*
X147755Y280032D01*
X148579Y280604D01*
X149371Y281220D01*
X150128Y281879D01*
X150847Y282579D01*
X151527Y283317D01*
X152164Y284092D01*
X152759Y284900D01*
X153308Y285740D01*
X153809Y286609D01*
X154262Y287505D01*
X154666Y288424D01*
X155017Y289363D01*
X155317Y290321D01*
X155563Y291294D01*
X155756Y292279D01*
X155893Y293273D01*
X155976Y294273D01*
X156004Y295276D01*
Y137795D02*
X155976Y138798D01*
X155893Y139798D01*
X155756Y140792D01*
X155563Y141777D01*
X155317Y142750D01*
X155017Y143708D01*
X154666Y144647D01*
X154262Y145566D01*
X153809Y146462D01*
X153308Y147331D01*
X152759Y148171D01*
X152164Y148979D01*
X151526Y149754D01*
X150847Y150492D01*
X150128Y151192D01*
X149371Y151851D01*
X148579Y152467D01*
X147755Y153039D01*
X146900Y153564D01*
X146017Y154042D01*
X145110Y154470D01*
X144180Y154848D01*
X143231Y155174D01*
X142265Y155447D01*
X141286Y155666D01*
X140296Y155831D01*
X139299Y155942D01*
X138297Y155997D01*
X137294D01*
X136292Y155942D01*
X135294Y155831D01*
X134304Y155666D01*
X133325Y155447D01*
X132360Y155174D01*
X131411Y154848D01*
X130481Y154470D01*
X129574Y154042D01*
X128691Y153564D01*
X127836Y153039D01*
X127012Y152467D01*
X126220Y151851D01*
X125463Y151192D01*
X124744Y150492D01*
X124064Y149754D01*
X123426Y148979D01*
X122832Y148171D01*
X122283Y147331D01*
X121781Y146462D01*
X121328Y145566D01*
X120925Y144647D01*
X120573Y143708D01*
X120274Y142750D01*
X120027Y141777D01*
X119835Y140792D01*
X119697Y139798D01*
X119614Y138798D01*
X119587Y137795D01*
X119614Y136792D01*
X119697Y135792D01*
X119835Y134798D01*
X120027Y133813D01*
X120274Y132841D01*
X120573Y131883D01*
X120925Y130943D01*
X121328Y130024D01*
X121781Y129129D01*
X122283Y128260D01*
X122832Y127420D01*
X123426Y126611D01*
X124064Y125837D01*
X124744Y125098D01*
X125463Y124399D01*
X126220Y123740D01*
X127012Y123123D01*
X127836Y122552D01*
X128691Y122026D01*
X129574Y121548D01*
X130481Y121120D01*
X131411Y120743D01*
X132360Y120417D01*
X133325Y120144D01*
X134304Y119924D01*
X135294Y119759D01*
X136292Y119649D01*
X137294Y119594D01*
X138297Y119594D01*
X139299Y119649D01*
X140296Y119759D01*
X141286Y119924D01*
X142265Y120144D01*
X143231Y120417D01*
X144180Y120743D01*
X145110Y121120D01*
X146017Y121549D01*
X146900Y122026D01*
X147755Y122552D01*
X148579Y123123D01*
X149371Y123740D01*
X150128Y124399D01*
X150847Y125099D01*
X151527Y125837D01*
X152164Y126611D01*
X152759Y127420D01*
X153308Y128260D01*
X153809Y129129D01*
X154262Y130024D01*
X154666Y130943D01*
X155017Y131883D01*
X155317Y132841D01*
X155563Y133814D01*
X155756Y134798D01*
X155893Y135792D01*
X155976Y136792D01*
X156004Y137795D01*
X683268Y267126D02*
X728543D01*
X683268Y209055D02*
X728543D01*
X527559Y257874D02*
Y265748D01*
Y167323D02*
Y175197D01*
X338583Y257874D02*
Y265748D01*
Y230315D02*
Y236221D01*
Y167323D02*
Y175197D01*
Y167323D02*
X527559D01*
X338583Y265748D02*
X527559D01*
X442913Y118110D02*
X452756Y127953D01*
X433071Y118110D02*
X452756Y137795D01*
X423228Y118110D02*
X452756Y147638D01*
X413386Y118110D02*
X452756Y157480D01*
X413386Y127953D02*
X452756Y167323D01*
X413386Y137795D02*
X452756Y177165D01*
X413386Y147638D02*
X452756Y187008D01*
X413386Y157480D02*
X452756Y196850D01*
X413386Y167323D02*
X450787Y204724D01*
X413386Y177165D02*
X446850Y210630D01*
X413386Y187008D02*
X446850Y220472D01*
X413386Y196850D02*
X452756Y236221D01*
X419291Y212598D02*
X452756Y246063D01*
X419291Y222441D02*
X452756Y255906D01*
X415354Y228346D02*
X452756Y265748D01*
X413386Y236221D02*
X452756Y275590D01*
X413386Y246063D02*
X452756Y285433D01*
X413386Y255906D02*
X452756Y295276D01*
X413386Y265748D02*
X452756Y305118D01*
X413386D02*
X423228Y314961D01*
X413386Y295276D02*
X433071Y314961D01*
X413386Y285433D02*
X442913Y314961D01*
X413386Y275590D02*
X452756Y314961D01*
X413386Y127953D02*
X423228Y118110D01*
X413386Y137795D02*
X433071Y118110D01*
X413386Y147638D02*
X442913Y118110D01*
X413386Y157480D02*
X452756Y118110D01*
X413386Y167323D02*
X452756Y127953D01*
X413386Y177165D02*
X452756Y137795D01*
X413386Y187008D02*
X452756Y147638D01*
X413386Y196850D02*
X452756Y157480D01*
X415354Y204724D02*
X452756Y167323D01*
X419291Y210630D02*
X452756Y177165D01*
X419291Y220472D02*
X452756Y187008D01*
X413386Y236221D02*
X452756Y196850D01*
X413386Y246063D02*
X446850Y212598D01*
X413386Y255906D02*
X446850Y222441D01*
X413386Y265748D02*
X450787Y228346D01*
X413386Y275590D02*
X452756Y236221D01*
X413386Y285433D02*
X452756Y246063D01*
X413386Y295276D02*
X452756Y255906D01*
X413386Y305118D02*
X452756Y265748D01*
X442913Y314961D02*
X452756Y305118D01*
X433071Y314961D02*
X452756Y295276D01*
X423228Y314961D02*
X452756Y285433D01*
X423228Y314961D02*
Y314961D01*
X413386D02*
X452756Y275590D01*
Y118110D02*
Y202756D01*
X446850Y208661D02*
X452756Y202756D01*
X446850Y208661D02*
Y224410D01*
X452756Y230315D01*
Y314961D01*
X413386Y118110D02*
Y202756D01*
X419291Y208661D01*
Y224410D01*
X413386Y230315D02*
X419291Y224410D01*
X413386Y230315D02*
Y314961D01*
X400592Y312006D02*
X404528D01*
X402560D01*
Y306102D01*
X410431Y311022D02*
X409448Y312006D01*
X407480D01*
X406496Y311022D01*
Y310038D01*
X407480Y309054D01*
X409448D01*
X410431Y308070D01*
Y307086D01*
X409448Y306102D01*
X407480D01*
X406496Y307086D01*
X455710Y312006D02*
Y306102D01*
X459646D01*
X461614Y312006D02*
Y308070D01*
X463582Y306102D01*
X465550Y308070D01*
Y312006D01*
X455710Y126967D02*
Y121063D01*
X459646D01*
X461614Y126967D02*
Y123031D01*
X463582Y121063D01*
X465550Y123031D01*
Y126967D01*
X400592D02*
X404528D01*
X402560D01*
Y121063D01*
X410431Y125983D02*
X409448Y126967D01*
X407480D01*
X406496Y125983D01*
Y124999D01*
X407480Y124015D01*
X409448D01*
X410431Y123031D01*
Y122047D01*
X409448Y121063D01*
X407480D01*
X406496Y122047D01*
D12*
X689961Y200787D02*
X689468Y201640D01*
X688484D01*
X687992Y200787D01*
X688484Y199935D01*
X689468D01*
X689961Y200787D01*
D13*
X663417Y267323D02*
X664173D01*
Y279921D01*
X663417D02*
X664173D01*
X658661D02*
X659417D01*
X658661Y267323D02*
Y279921D01*
Y267323D02*
X659417D01*
X658661Y273622D02*
X664173D01*
X176673Y139272D02*
X177657D01*
X176673Y120571D02*
Y139272D01*
Y120571D02*
X177657D01*
X184547D02*
X185531D01*
Y139272D01*
X184547D02*
X185531D01*
X176673Y129921D02*
X185531D01*
X194095Y139370D02*
X195276D01*
Y120472D02*
Y139370D01*
X194095Y120472D02*
X195276D01*
X186614D02*
X187795D01*
X186614D02*
Y139370D01*
X187795D01*
X186614Y129921D02*
X195276D01*
X197244Y127165D02*
Y128347D01*
X216142D01*
Y127165D02*
Y128347D01*
Y119685D02*
Y120866D01*
X197244Y119685D02*
X216142D01*
X197244D02*
Y120866D01*
X206693Y119685D02*
Y128347D01*
X657480Y288385D02*
X661416D01*
X659448Y290353D02*
Y286417D01*
X621064Y248031D02*
Y251967D01*
X619096Y249999D02*
X623032D01*
X585631Y253937D02*
Y257873D01*
X583663Y255905D02*
X587599D01*
D14*
X265748Y265748D02*
Y303150D01*
X214567Y265748D02*
Y303150D01*
D15*
X122047Y170276D02*
Y272638D01*
X157480D01*
Y170276D02*
Y272638D01*
X122047Y170276D02*
X157480D01*
X159449Y210630D02*
Y312992D01*
X194882D01*
Y210630D02*
Y312992D01*
X159449Y210630D02*
X194882D01*
X472441Y273622D02*
X551181D01*
X472441Y301181D02*
X551181D01*
Y273622D02*
Y301181D01*
X472441Y273622D02*
Y301181D01*
D16*
X689637Y273949D02*
Y270014D01*
X692261D01*
X693573Y273949D02*
Y271326D01*
X694885Y270014D01*
X696197Y271326D01*
Y273949D01*
X697509Y269358D02*
X700133D01*
X701445Y270014D02*
Y273949D01*
X703412D01*
X704069Y273293D01*
Y271982D01*
X703412Y271326D01*
X701445D01*
X707348Y273949D02*
X706036D01*
X705380Y273293D01*
Y270670D01*
X706036Y270014D01*
X707348D01*
X708004Y270670D01*
Y273293D01*
X707348Y273949D01*
X709316D02*
Y270014D01*
X710628Y271326D01*
X711940Y270014D01*
Y273949D01*
X715876D02*
X713252D01*
Y270014D01*
X715876D01*
X713252Y271982D02*
X714564D01*
X717188Y270014D02*
Y273949D01*
X719156D01*
X719811Y273293D01*
Y271982D01*
X719156Y271326D01*
X717188D01*
X718500D02*
X719811Y270014D01*
X330053Y261810D02*
Y258531D01*
X330709Y257875D01*
X332021D01*
X332677Y258531D01*
Y261810D01*
X333989Y257875D02*
X335301D01*
X334645D01*
Y261810D01*
X333989Y261154D01*
X538059Y305119D02*
Y309054D01*
X540027D01*
X540683Y308399D01*
Y307087D01*
X540027Y306431D01*
X538059D01*
X539371D02*
X540683Y305119D01*
X541995Y309054D02*
Y306431D01*
X543307Y305119D01*
X544619Y306431D01*
Y309054D01*
X545931Y308399D02*
X546587Y309054D01*
X547899D01*
X548555Y308399D01*
Y307743D01*
X547899Y307087D01*
X547243D01*
X547899D01*
X548555Y306431D01*
Y305775D01*
X547899Y305119D01*
X546587D01*
X545931Y305775D01*
X666012Y269686D02*
Y273621D01*
X667980D01*
X668636Y272966D01*
Y271654D01*
X667980Y270998D01*
X666012D01*
X667324D02*
X668636Y269686D01*
X672572Y273621D02*
X669948D01*
Y271654D01*
X671260Y272309D01*
X671916D01*
X672572Y271654D01*
Y270342D01*
X671916Y269686D01*
X670604D01*
X669948Y270342D01*
X676508Y269686D02*
X673884D01*
X676508Y272309D01*
Y272966D01*
X675851Y273621D01*
X674540D01*
X673884Y272966D01*
X700787Y126642D02*
X696851D01*
Y128610D01*
X697507Y129266D01*
X698819D01*
X699475Y128610D01*
Y126642D01*
Y127954D02*
X700787Y129266D01*
X697507Y130578D02*
X696851Y131234D01*
Y132546D01*
X697507Y133202D01*
X698163D01*
X698819Y132546D01*
Y131890D01*
Y132546D01*
X699475Y133202D01*
X700131D01*
X700787Y132546D01*
Y131234D01*
X700131Y130578D01*
X697507Y134514D02*
X696851Y135170D01*
Y136481D01*
X697507Y137137D01*
X700131D01*
X700787Y136481D01*
Y135170D01*
X700131Y134514D01*
X697507D01*
X197836Y303150D02*
Y307086D01*
X199804D01*
X200460Y306430D01*
Y305118D01*
X199804Y304462D01*
X197836D01*
X199148D02*
X200460Y303150D01*
X201772D02*
X203084D01*
X202428D01*
Y307086D01*
X201772Y306430D01*
X205052D02*
X205708Y307086D01*
X207020D01*
X207676Y306430D01*
Y305774D01*
X207020Y305118D01*
X206364D01*
X207020D01*
X207676Y304462D01*
Y303806D01*
X207020Y303150D01*
X205708D01*
X205052Y303806D01*
X228346Y174214D02*
X224410D01*
Y176182D01*
X225066Y176838D01*
X226378D01*
X227034Y176182D01*
Y174214D01*
Y175526D02*
X228346Y176838D01*
Y178150D02*
Y179462D01*
Y178806D01*
X224410D01*
X225066Y178150D01*
X228346Y184054D02*
Y181430D01*
X225722Y184054D01*
X225066D01*
X224410Y183398D01*
Y182086D01*
X225066Y181430D01*
X206299Y130382D02*
X202363D01*
Y132350D01*
X203019Y133006D01*
X204331D01*
X204987Y132350D01*
Y130382D01*
Y131694D02*
X206299Y133006D01*
Y134318D02*
Y135630D01*
Y134974D01*
X202363D01*
X203019Y134318D01*
X206299Y137598D02*
Y138909D01*
Y138253D01*
X202363D01*
X203019Y137598D01*
X207679Y129922D02*
Y133858D01*
X209647D01*
X210303Y133202D01*
Y131890D01*
X209647Y131234D01*
X207679D01*
X208991D02*
X210303Y129922D01*
X211614D02*
X212926D01*
X212270D01*
Y133858D01*
X211614Y133202D01*
X214894D02*
X215550Y133858D01*
X216862D01*
X217518Y133202D01*
Y130578D01*
X216862Y129922D01*
X215550D01*
X214894Y130578D01*
Y133202D01*
X159055Y163255D02*
Y165879D01*
X158399Y166535D01*
X157087D01*
X156431Y165879D01*
Y163255D01*
X157087Y162599D01*
X158399D01*
X157743Y163911D02*
X159055Y162599D01*
X158399D02*
X159055Y163255D01*
X160367Y162599D02*
X161679D01*
X161023D01*
Y166535D01*
X160367Y165879D01*
X521653Y124674D02*
X517717D01*
X521653Y127297D01*
X517717D01*
Y128609D02*
Y131233D01*
Y129921D01*
X521653D01*
X518373Y135169D02*
X517717Y134513D01*
Y133201D01*
X518373Y132545D01*
X520997D01*
X521653Y133201D01*
Y134513D01*
X520997Y135169D01*
X667981Y129921D02*
Y125985D01*
X670605D01*
X671916Y129265D02*
X672572Y129921D01*
X673884D01*
X674540Y129265D01*
Y128609D01*
X673884Y127953D01*
X673228D01*
X673884D01*
X674540Y127297D01*
Y126641D01*
X673884Y125985D01*
X672572D01*
X671916Y126641D01*
X675852Y129265D02*
X676508Y129921D01*
X677820D01*
X678476Y129265D01*
Y126641D01*
X677820Y125985D01*
X676508D01*
X675852Y126641D01*
Y129265D01*
X203742Y312991D02*
Y309056D01*
X206366D01*
X207678D02*
X208989D01*
X208333D01*
Y312991D01*
X207678Y312335D01*
X210957D02*
X211613Y312991D01*
X212925D01*
X213581Y312335D01*
Y309712D01*
X212925Y309056D01*
X211613D01*
X210957Y309712D01*
Y312335D01*
X317918Y163713D02*
Y159777D01*
Y161745D01*
X320542D01*
Y163713D01*
Y159777D01*
X321854Y163713D02*
Y161089D01*
X323166Y159777D01*
X324478Y161089D01*
Y163713D01*
X325790Y159122D02*
X328414D01*
X329725Y159777D02*
Y163713D01*
X331693D01*
X332349Y163057D01*
Y161745D01*
X331693Y161089D01*
X329725D01*
X334317Y159777D02*
X335629D01*
X336285Y160433D01*
Y161745D01*
X335629Y162401D01*
X334317D01*
X333661Y161745D01*
Y160433D01*
X334317Y159777D01*
X337597Y162401D02*
Y160433D01*
X338253Y159777D01*
X338909Y160433D01*
X339565Y159777D01*
X340221Y160433D01*
Y162401D01*
X343500Y159777D02*
X342189D01*
X341533Y160433D01*
Y161745D01*
X342189Y162401D01*
X343500D01*
X344156Y161745D01*
Y161089D01*
X341533D01*
X345468Y162401D02*
Y159777D01*
Y161089D01*
X346124Y161745D01*
X346780Y162401D01*
X347436D01*
X475224Y308236D02*
X472600D01*
Y306268D01*
X473912D01*
X472600D01*
Y304300D01*
X476536Y307580D02*
X477192Y308236D01*
X478504D01*
X479160Y307580D01*
Y306924D01*
X478504Y306268D01*
X477848D01*
X478504D01*
X479160Y305612D01*
Y304956D01*
X478504Y304300D01*
X477192D01*
X476536Y304956D01*
X271654Y125984D02*
X269030D01*
Y124016D01*
X270342D01*
X269030D01*
Y122048D01*
X272966D02*
X274277D01*
X273621D01*
Y125984D01*
X272966Y125328D01*
X702101Y161417D02*
Y157481D01*
X704069D01*
X704725Y158137D01*
Y160761D01*
X704069Y161417D01*
X702101D01*
X706037Y160761D02*
X706693Y161417D01*
X708005D01*
X708661Y160761D01*
Y160105D01*
X708005Y159449D01*
X707349D01*
X708005D01*
X708661Y158793D01*
Y158137D01*
X708005Y157481D01*
X706693D01*
X706037Y158137D01*
X709973Y157481D02*
X711285D01*
X710629D01*
Y161417D01*
X709973Y160761D01*
X581366Y311023D02*
Y307087D01*
X583334D01*
X583990Y307743D01*
Y310367D01*
X583334Y311023D01*
X581366D01*
X585302Y310367D02*
X585958Y311023D01*
X587270D01*
X587926Y310367D01*
Y309711D01*
X587270Y309055D01*
X586614D01*
X587270D01*
X587926Y308399D01*
Y307743D01*
X587270Y307087D01*
X585958D01*
X585302Y307743D01*
X589238Y310367D02*
X589894Y311023D01*
X591206D01*
X591862Y310367D01*
Y307743D01*
X591206Y307087D01*
X589894D01*
X589238Y307743D01*
Y310367D01*
X155973Y125984D02*
Y122048D01*
X157940D01*
X158596Y122704D01*
Y125328D01*
X157940Y125984D01*
X155973D01*
X159908Y122048D02*
X161220D01*
X160564D01*
Y125984D01*
X159908Y125328D01*
X163188Y122048D02*
X164500D01*
X163844D01*
Y125984D01*
X163188Y125328D01*
X325789Y307086D02*
Y303150D01*
X327757D01*
X328413Y303806D01*
Y306430D01*
X327757Y307086D01*
X325789D01*
X329725Y303150D02*
X331037D01*
X330381D01*
Y307086D01*
X329725Y306430D01*
X333004D02*
X333661Y307086D01*
X334972D01*
X335628Y306430D01*
Y303806D01*
X334972Y303150D01*
X333661D01*
X333004Y303806D01*
Y306430D01*
X660105Y296589D02*
X659449Y295933D01*
Y294621D01*
X660105Y293966D01*
X662729D01*
X663385Y294621D01*
Y295933D01*
X662729Y296589D01*
X659449Y297901D02*
Y300525D01*
Y299213D01*
X663385D01*
Y301837D02*
X659449D01*
Y303805D01*
X660105Y304461D01*
X661417D01*
X662073Y303805D01*
Y301837D01*
Y303149D02*
X663385Y304461D01*
X659449Y305773D02*
X663385D01*
Y308397D01*
X615486Y125328D02*
X614830Y125984D01*
X613518D01*
X612863Y125328D01*
Y122704D01*
X613518Y122048D01*
X614830D01*
X615486Y122704D01*
X616798Y125328D02*
X617454Y125984D01*
X618766D01*
X619422Y125328D01*
Y124672D01*
X618766Y124016D01*
X618110D01*
X618766D01*
X619422Y123360D01*
Y122704D01*
X618766Y122048D01*
X617454D01*
X616798Y122704D01*
X620734Y125984D02*
X623358D01*
Y125328D01*
X620734Y122704D01*
Y122048D01*
X615486Y180446D02*
X614830Y181102D01*
X613518D01*
X612863Y180446D01*
Y177822D01*
X613518Y177166D01*
X614830D01*
X615486Y177822D01*
X616798Y180446D02*
X617454Y181102D01*
X618766D01*
X619422Y180446D01*
Y179790D01*
X618766Y179134D01*
X618110D01*
X618766D01*
X619422Y178478D01*
Y177822D01*
X618766Y177166D01*
X617454D01*
X616798Y177822D01*
X623358Y181102D02*
X622046Y180446D01*
X620734Y179134D01*
Y177822D01*
X621390Y177166D01*
X622702D01*
X623358Y177822D01*
Y178478D01*
X622702Y179134D01*
X620734D01*
X593833Y154855D02*
X593177Y155511D01*
X591865D01*
X591209Y154855D01*
Y152231D01*
X591865Y151575D01*
X593177D01*
X593833Y152231D01*
X595145Y154855D02*
X595801Y155511D01*
X597113D01*
X597769Y154855D01*
Y154199D01*
X597113Y153543D01*
X596457D01*
X597113D01*
X597769Y152887D01*
Y152231D01*
X597113Y151575D01*
X595801D01*
X595145Y152231D01*
X601704Y155511D02*
X599081D01*
Y153543D01*
X600392Y154199D01*
X601048D01*
X601704Y153543D01*
Y152231D01*
X601048Y151575D01*
X599736D01*
X599081Y152231D01*
X580053Y154855D02*
X579397Y155511D01*
X578086D01*
X577429Y154855D01*
Y152231D01*
X578086Y151575D01*
X579397D01*
X580053Y152231D01*
X581365Y154855D02*
X582021Y155511D01*
X583333D01*
X583989Y154855D01*
Y154199D01*
X583333Y153543D01*
X582677D01*
X583333D01*
X583989Y152887D01*
Y152231D01*
X583333Y151575D01*
X582021D01*
X581365Y152231D01*
X587269Y151575D02*
Y155511D01*
X585301Y153543D01*
X587925D01*
X536746Y192257D02*
X536090Y192913D01*
X534778D01*
X534122Y192257D01*
Y189633D01*
X534778Y188977D01*
X536090D01*
X536746Y189633D01*
X538058Y192257D02*
X538714Y192913D01*
X540026D01*
X540682Y192257D01*
Y191601D01*
X540026Y190945D01*
X539370D01*
X540026D01*
X540682Y190289D01*
Y189633D01*
X540026Y188977D01*
X538714D01*
X538058Y189633D01*
X541994Y192257D02*
X542650Y192913D01*
X543962D01*
X544618Y192257D01*
Y191601D01*
X543962Y190945D01*
X543306D01*
X543962D01*
X544618Y190289D01*
Y189633D01*
X543962Y188977D01*
X542650D01*
X541994Y189633D01*
X542652Y259186D02*
X541996Y259842D01*
X540684D01*
X540028Y259186D01*
Y256562D01*
X540684Y255906D01*
X541996D01*
X542652Y256562D01*
X543964Y259186D02*
X544620Y259842D01*
X545931D01*
X546588Y259186D01*
Y258530D01*
X545931Y257874D01*
X545276D01*
X545931D01*
X546588Y257218D01*
Y256562D01*
X545931Y255906D01*
X544620D01*
X543964Y256562D01*
X550523Y255906D02*
X547899D01*
X550523Y258530D01*
Y259186D01*
X549867Y259842D01*
X548555D01*
X547899Y259186D01*
X610237Y251312D02*
X609581Y251968D01*
X608269D01*
X607613Y251312D01*
Y248688D01*
X608269Y248032D01*
X609581D01*
X610237Y248688D01*
X611549Y251312D02*
X612205Y251968D01*
X613517D01*
X614173Y251312D01*
Y250656D01*
X613517Y250000D01*
X612861D01*
X613517D01*
X614173Y249344D01*
Y248688D01*
X613517Y248032D01*
X612205D01*
X611549Y248688D01*
X615485Y248032D02*
X616796D01*
X616141D01*
Y251968D01*
X615485Y251312D01*
X603675Y308399D02*
X603019Y309054D01*
X601708D01*
X601052Y308399D01*
Y305775D01*
X601708Y305119D01*
X603019D01*
X603675Y305775D01*
X604987Y308399D02*
X605643Y309054D01*
X606955D01*
X607611Y308399D01*
Y307743D01*
X606955Y307087D01*
X606299D01*
X606955D01*
X607611Y306431D01*
Y305775D01*
X606955Y305119D01*
X605643D01*
X604987Y305775D01*
X608923Y308399D02*
X609579Y309054D01*
X610891D01*
X611547Y308399D01*
Y305775D01*
X610891Y305119D01*
X609579D01*
X608923Y305775D01*
Y308399D01*
X312665Y235564D02*
X312009Y236220D01*
X310697D01*
X310041Y235564D01*
Y232940D01*
X310697Y232284D01*
X312009D01*
X312665Y232940D01*
X313977Y232284D02*
X315289D01*
X314633D01*
Y236220D01*
X313977Y235564D01*
X317256Y236220D02*
X319880D01*
Y235564D01*
X317256Y232940D01*
Y232284D01*
X289043Y235564D02*
X288387Y236220D01*
X287075D01*
X286419Y235564D01*
Y232940D01*
X287075Y232284D01*
X288387D01*
X289043Y232940D01*
X290355Y232284D02*
X291667D01*
X291011D01*
Y236220D01*
X290355Y235564D01*
X296258Y236220D02*
X294946Y235564D01*
X293634Y234252D01*
Y232940D01*
X294290Y232284D01*
X295602D01*
X296258Y232940D01*
Y233596D01*
X295602Y234252D01*
X293634D01*
X265421Y235564D02*
X264765Y236220D01*
X263453D01*
X262797Y235564D01*
Y232940D01*
X263453Y232284D01*
X264765D01*
X265421Y232940D01*
X266733Y232284D02*
X268044D01*
X267389D01*
Y236220D01*
X266733Y235564D01*
X272636Y236220D02*
X270012D01*
Y234252D01*
X271324Y234908D01*
X271980D01*
X272636Y234252D01*
Y232940D01*
X271980Y232284D01*
X270668D01*
X270012Y232940D01*
X241799Y235564D02*
X241143Y236220D01*
X239831D01*
X239175Y235564D01*
Y232940D01*
X239831Y232284D01*
X241143D01*
X241799Y232940D01*
X243111Y232284D02*
X244423D01*
X243766D01*
Y236220D01*
X243111Y235564D01*
X248358Y232284D02*
Y236220D01*
X246390Y234252D01*
X249014D01*
X218177Y235564D02*
X217521Y236220D01*
X216209D01*
X215553Y235564D01*
Y232940D01*
X216209Y232284D01*
X217521D01*
X218177Y232940D01*
X219489Y232284D02*
X220800D01*
X220145D01*
Y236220D01*
X219489Y235564D01*
X222768D02*
X223424Y236220D01*
X224736D01*
X225392Y235564D01*
Y234908D01*
X224736Y234252D01*
X224080D01*
X224736D01*
X225392Y233596D01*
Y232940D01*
X224736Y232284D01*
X223424D01*
X222768Y232940D01*
X125657Y166666D02*
X125001Y167322D01*
X123689D01*
X123033Y166666D01*
Y164042D01*
X123689Y163386D01*
X125001D01*
X125657Y164042D01*
X126969Y163386D02*
X128281D01*
X127625D01*
Y167322D01*
X126969Y166666D01*
X132872Y163386D02*
X130249D01*
X132872Y166010D01*
Y166666D01*
X132217Y167322D01*
X130905D01*
X130249Y166666D01*
X197507Y226707D02*
X196851Y226051D01*
Y224739D01*
X197507Y224083D01*
X200131D01*
X200787Y224739D01*
Y226051D01*
X200131Y226707D01*
X200787Y228018D02*
Y229330D01*
Y228674D01*
X196851D01*
X197507Y228018D01*
X200787Y231298D02*
Y232610D01*
Y231954D01*
X196851D01*
X197507Y231298D01*
Y132350D02*
X196851Y131694D01*
Y130382D01*
X197507Y129726D01*
X200131D01*
X200787Y130382D01*
Y131694D01*
X200131Y132350D01*
X200787Y133662D02*
Y134974D01*
Y134318D01*
X196851D01*
X197507Y133662D01*
Y136942D02*
X196851Y137598D01*
Y138909D01*
X197507Y139565D01*
X200131D01*
X200787Y138909D01*
Y137598D01*
X200131Y136942D01*
X197507D01*
X387796Y162729D02*
X387140Y163385D01*
X385828D01*
X385172Y162729D01*
Y160105D01*
X385828Y159450D01*
X387140D01*
X387796Y160105D01*
X389108Y162729D02*
X389764Y163385D01*
X391076D01*
X391732Y162729D01*
Y160105D01*
X391076Y159450D01*
X389764D01*
X389108Y160105D01*
Y162729D01*
X393044Y159450D02*
X394356D01*
X393700D01*
Y163385D01*
X393044Y162729D01*
X387140Y272966D02*
X386484Y273621D01*
X385172D01*
X384516Y272966D01*
Y270342D01*
X385172Y269686D01*
X386484D01*
X387140Y270342D01*
X388452Y272966D02*
X389108Y273621D01*
X390420D01*
X391076Y272966D01*
Y270342D01*
X390420Y269686D01*
X389108D01*
X388452Y270342D01*
Y272966D01*
X392388D02*
X393044Y273621D01*
X394356D01*
X395011Y272966D01*
Y270342D01*
X394356Y269686D01*
X393044D01*
X392388Y270342D01*
Y272966D01*
X657480Y253282D02*
Y250658D01*
X654856Y253282D01*
X654200D01*
X653544Y252626D01*
Y251314D01*
X654200Y250658D01*
X657480Y256561D02*
X653544D01*
X655512Y254594D01*
Y257217D01*
X653544Y258529D02*
X656168D01*
X657480Y259841D01*
X656168Y261153D01*
X653544D01*
D17*
X661313Y261602D02*
Y264173D01*
X662598Y262888D02*
X660028D01*
M02*
