G04*
G04 #@! TF.GenerationSoftware,Altium Limited,Altium Designer,24.3.1 (35)*
G04*
G04 Layer_Physical_Order=4*
G04 Layer_Color=16776960*
%FSLAX25Y25*%
%MOIN*%
G70*
G04*
G04 #@! TF.SameCoordinates,FD519535-7E5F-4FBF-A31B-089F6CA01B13*
G04*
G04*
G04 #@! TF.FilePolarity,Positive*
G04*
G01*
G75*
%ADD11C,0.00984*%
%ADD12C,0.01968*%
%ADD35C,0.12205*%
%ADD51R,0.12205X0.06299*%
%ADD52R,0.03543X0.03937*%
%ADD53R,0.03150X0.03150*%
%ADD63C,0.11811*%
%ADD64C,0.11811*%
%ADD65C,0.05512*%
%ADD66C,0.06496*%
%ADD67C,0.07874*%
%ADD68C,0.13780*%
%ADD69C,0.06000*%
%ADD70R,0.06000X0.06000*%
%ADD71C,0.08661*%
%ADD72C,0.36417*%
%ADD73C,0.03937*%
%ADD74O,0.05118X0.03543*%
%ADD75R,0.03543X0.03150*%
%ADD76R,0.02953X0.02756*%
%ADD77R,0.03937X0.03543*%
%ADD78R,0.03543X0.06496*%
%ADD79R,0.06496X0.03543*%
G36*
X627953Y261811D02*
X651575Y238189D01*
Y208661D01*
X635827Y192913D01*
X570866D01*
X549213Y171260D01*
Y145669D01*
X533464D01*
Y175197D01*
X533465Y187008D01*
X566929Y220472D01*
X610236D01*
X612205Y222441D01*
Y289370D01*
X627953D01*
Y261811D01*
D02*
G37*
G36*
X746827Y295276D02*
Y119314D01*
X584646D01*
Y147638D01*
X675197D01*
Y222933D01*
X675916D01*
X677095Y223168D01*
X678205Y223628D01*
X679205Y224295D01*
X680055Y225145D01*
X680723Y226145D01*
X681183Y227255D01*
X681417Y228434D01*
Y229637D01*
X681183Y230815D01*
X680723Y231926D01*
X680055Y232926D01*
X679205Y233775D01*
X678205Y234443D01*
X677095Y234903D01*
X675916Y235138D01*
X675197D01*
Y295276D01*
X543839D01*
X543573Y296268D01*
X542832Y297551D01*
X541784Y298600D01*
X540500Y299341D01*
X539068Y299724D01*
X537586D01*
X536154Y299341D01*
X534870Y298600D01*
X533822Y297551D01*
X533080Y296268D01*
X532815Y295276D01*
X492126D01*
Y148000D01*
X483890D01*
Y139402D01*
X492126D01*
Y134635D01*
X491749Y134534D01*
X491626Y134533D01*
X490829Y135330D01*
X489848Y135896D01*
X488755Y136189D01*
X487623D01*
X486530Y135896D01*
X485549Y135330D01*
X484749Y134529D01*
X484183Y133549D01*
X483890Y132456D01*
Y131324D01*
X484183Y130230D01*
X484749Y129250D01*
X485549Y128449D01*
X486530Y127884D01*
X487623Y127591D01*
X488755D01*
X489848Y127884D01*
X490829Y128449D01*
X491626Y129247D01*
X491749Y129246D01*
X492126Y129145D01*
Y119314D01*
X452756D01*
Y202756D01*
X452756D01*
X452073Y203439D01*
Y208740D01*
X452559D01*
X453283Y208835D01*
X453957Y209114D01*
X454536Y209559D01*
X454980Y210138D01*
X455259Y210812D01*
X455289Y211035D01*
X451772D01*
Y212035D01*
X455289D01*
X455259Y212259D01*
X454980Y212933D01*
X454536Y213512D01*
X453957Y213956D01*
X453283Y214236D01*
X452559Y214331D01*
X452073D01*
Y218954D01*
X452559D01*
X453227Y219042D01*
X453850Y219300D01*
X454005Y219420D01*
X454342Y219353D01*
X454342Y219353D01*
X458071D01*
Y218110D01*
X463189D01*
Y219353D01*
X465945D01*
Y218110D01*
X471063D01*
Y223622D01*
X465945D01*
Y222379D01*
X463189D01*
Y223622D01*
X458071D01*
Y222379D01*
X454979D01*
X454794Y222826D01*
X454384Y223361D01*
X453850Y223771D01*
X453227Y224029D01*
X452559Y224117D01*
X452073D01*
Y229632D01*
X452756Y230315D01*
Y313756D01*
X746827D01*
Y295276D01*
D02*
G37*
%LPC*%
G36*
X634457Y235846D02*
X633260D01*
X632103Y235537D01*
X631066Y234938D01*
X630220Y234091D01*
X629621Y233054D01*
X629311Y231898D01*
Y230701D01*
X629621Y229544D01*
X630220Y228507D01*
X631066Y227660D01*
X632103Y227062D01*
X633260Y226752D01*
X634457D01*
X635613Y227062D01*
X636650Y227660D01*
X637497Y228507D01*
X638096Y229544D01*
X638406Y230701D01*
Y231898D01*
X638096Y233054D01*
X637497Y234091D01*
X636650Y234938D01*
X635613Y235537D01*
X634457Y235846D01*
D02*
G37*
G36*
X705124Y306890D02*
X704325D01*
X703587Y306584D01*
X703022Y306019D01*
X702716Y305281D01*
Y304483D01*
X703022Y303745D01*
X703587Y303180D01*
X704325Y302874D01*
X705124D01*
X705862Y303180D01*
X706427Y303745D01*
X706732Y304483D01*
Y305281D01*
X706427Y306019D01*
X705862Y306584D01*
X705124Y306890D01*
D02*
G37*
G36*
X669691D02*
X668892D01*
X668154Y306584D01*
X667589Y306019D01*
X667283Y305281D01*
Y304483D01*
X667589Y303745D01*
X668154Y303180D01*
X668892Y302874D01*
X669691D01*
X670429Y303180D01*
X670994Y303745D01*
X671299Y304483D01*
Y305281D01*
X670994Y306019D01*
X670429Y306584D01*
X669691Y306890D01*
D02*
G37*
G36*
X565101Y306221D02*
X564033D01*
X563002Y305944D01*
X562077Y305410D01*
X561322Y304655D01*
X560788Y303731D01*
X560512Y302699D01*
Y301631D01*
X560788Y300600D01*
X561322Y299675D01*
X562077Y298920D01*
X563002Y298387D01*
X564033Y298110D01*
X565101D01*
X566132Y298387D01*
X567057Y298920D01*
X567812Y299675D01*
X568346Y300600D01*
X568622Y301631D01*
Y302699D01*
X568346Y303731D01*
X567812Y304655D01*
X567057Y305410D01*
X566132Y305944D01*
X565101Y306221D01*
D02*
G37*
G36*
X693479Y305480D02*
X692347D01*
X691254Y305187D01*
X690274Y304621D01*
X689473Y303821D01*
X688907Y302840D01*
X688614Y301747D01*
Y300615D01*
X688907Y299522D01*
X689473Y298541D01*
X690274Y297741D01*
X691254Y297175D01*
X692347Y296882D01*
X693479D01*
X694573Y297175D01*
X695553Y297741D01*
X696354Y298541D01*
X696920Y299522D01*
X697213Y300615D01*
Y301747D01*
X696920Y302840D01*
X696354Y303821D01*
X695553Y304621D01*
X694573Y305187D01*
X693479Y305480D01*
D02*
G37*
G36*
X486036Y299724D02*
X484554D01*
X483122Y299341D01*
X481838Y298600D01*
X480790Y297551D01*
X480049Y296268D01*
X479665Y294836D01*
Y293353D01*
X480049Y291921D01*
X480790Y290638D01*
X481838Y289589D01*
X483122Y288848D01*
X484554Y288465D01*
X486036D01*
X487468Y288848D01*
X488752Y289589D01*
X489800Y290638D01*
X490542Y291921D01*
X490925Y293353D01*
Y294836D01*
X490542Y296268D01*
X489800Y297551D01*
X488752Y298600D01*
X487468Y299341D01*
X486036Y299724D01*
D02*
G37*
G36*
X697213Y293669D02*
X688614D01*
Y285071D01*
X697213D01*
Y293669D01*
D02*
G37*
G36*
X681668D02*
X680536D01*
X679443Y293376D01*
X678463Y292810D01*
X677662Y292010D01*
X677096Y291030D01*
X676803Y289936D01*
Y288804D01*
X677096Y287711D01*
X677662Y286730D01*
X678463Y285930D01*
X679443Y285364D01*
X680536Y285071D01*
X681668D01*
X682762Y285364D01*
X683742Y285930D01*
X684543Y286730D01*
X685109Y287711D01*
X685402Y288804D01*
Y289936D01*
X685109Y291030D01*
X684543Y292010D01*
X683742Y292810D01*
X682762Y293376D01*
X681668Y293669D01*
D02*
G37*
G36*
X486036Y286339D02*
X484554D01*
X483122Y285955D01*
X481838Y285214D01*
X480790Y284166D01*
X480049Y282882D01*
X479665Y281450D01*
Y279967D01*
X480049Y278536D01*
X480790Y277252D01*
X481838Y276204D01*
X483122Y275462D01*
X484554Y275079D01*
X486036D01*
X487468Y275462D01*
X488752Y276204D01*
X489800Y277252D01*
X490542Y278536D01*
X490925Y279967D01*
Y281450D01*
X490542Y282882D01*
X489800Y284166D01*
X488752Y285214D01*
X487468Y285955D01*
X486036Y286339D01*
D02*
G37*
G36*
X718820Y259961D02*
X717401D01*
X716009Y259684D01*
X714698Y259141D01*
X713518Y258352D01*
X712514Y257349D01*
X711726Y256169D01*
X711182Y254857D01*
X710906Y253466D01*
Y252046D01*
X711182Y250654D01*
X711726Y249343D01*
X712514Y248163D01*
X713518Y247160D01*
X714698Y246371D01*
X716009Y245828D01*
X717401Y245551D01*
X718820D01*
X720212Y245828D01*
X721523Y246371D01*
X722703Y247160D01*
X723706Y248163D01*
X724495Y249343D01*
X725038Y250654D01*
X725315Y252046D01*
Y253466D01*
X725038Y254857D01*
X724495Y256169D01*
X723706Y257349D01*
X722703Y258352D01*
X721523Y259141D01*
X720212Y259684D01*
X718820Y259961D01*
D02*
G37*
G36*
X468895Y252969D02*
X468113D01*
X467358Y252766D01*
X466681Y252375D01*
X466128Y251823D01*
X465738Y251146D01*
X465535Y250391D01*
Y249609D01*
X465738Y248854D01*
X466128Y248177D01*
X466681Y247625D01*
X466815Y247547D01*
X466681Y247047D01*
X465945D01*
Y242323D01*
X471063D01*
Y247047D01*
X470327D01*
X470193Y247547D01*
X470327Y247625D01*
X470879Y248177D01*
X471270Y248854D01*
X471472Y249609D01*
Y250391D01*
X471270Y251146D01*
X470879Y251823D01*
X470327Y252375D01*
X469650Y252766D01*
X468895Y252969D01*
D02*
G37*
G36*
X461021D02*
X460239D01*
X459484Y252766D01*
X458807Y252375D01*
X458254Y251823D01*
X457864Y251146D01*
X457661Y250391D01*
Y249609D01*
X457864Y248854D01*
X458254Y248177D01*
X458807Y247625D01*
X458941Y247547D01*
X458807Y247047D01*
X458071D01*
Y242323D01*
X463189D01*
Y247047D01*
X462453D01*
X462319Y247547D01*
X462453Y247625D01*
X463005Y248177D01*
X463396Y248854D01*
X463598Y249609D01*
Y250391D01*
X463396Y251146D01*
X463005Y251823D01*
X462453Y252375D01*
X461776Y252766D01*
X461021Y252969D01*
D02*
G37*
G36*
X471063Y237992D02*
X465945D01*
Y233268D01*
X466991D01*
Y230709D01*
X465945D01*
Y225197D01*
X471063D01*
Y230709D01*
X470017D01*
Y233268D01*
X471063D01*
Y237992D01*
D02*
G37*
G36*
X463189D02*
X458071D01*
Y233268D01*
X459117D01*
Y230709D01*
X458071D01*
Y225197D01*
X463189D01*
Y230709D01*
X462143D01*
Y233268D01*
X463189D01*
Y237992D01*
D02*
G37*
G36*
X718820Y237520D02*
X717401D01*
X716009Y237243D01*
X714698Y236700D01*
X713518Y235911D01*
X712514Y234908D01*
X711726Y233728D01*
X711182Y232417D01*
X710906Y231025D01*
Y229605D01*
X711182Y228213D01*
X711726Y226902D01*
X712514Y225722D01*
X713518Y224719D01*
X714698Y223930D01*
X716009Y223387D01*
X717401Y223110D01*
X718820D01*
X720212Y223387D01*
X721523Y223930D01*
X722703Y224719D01*
X723706Y225722D01*
X724495Y226902D01*
X725038Y228213D01*
X725315Y229605D01*
Y231025D01*
X725038Y232417D01*
X724495Y233728D01*
X723706Y234908D01*
X722703Y235911D01*
X721523Y236700D01*
X720212Y237243D01*
X718820Y237520D01*
D02*
G37*
G36*
X739066Y235138D02*
X737863D01*
X736685Y234903D01*
X735574Y234443D01*
X734575Y233775D01*
X733724Y232926D01*
X733057Y231926D01*
X732597Y230815D01*
X732362Y229637D01*
Y228434D01*
X732597Y227255D01*
X733057Y226145D01*
X733724Y225145D01*
X734575Y224295D01*
X735574Y223628D01*
X736685Y223168D01*
X737863Y222933D01*
X739066D01*
X740244Y223168D01*
X741355Y223628D01*
X742355Y224295D01*
X743205Y225145D01*
X743872Y226145D01*
X744332Y227255D01*
X744567Y228434D01*
Y229637D01*
X744332Y230815D01*
X743872Y231926D01*
X743205Y232926D01*
X742355Y233775D01*
X741355Y234443D01*
X740244Y234903D01*
X739066Y235138D01*
D02*
G37*
G36*
X476777Y130197D02*
X475979D01*
X475241Y129891D01*
X474676Y129326D01*
X474370Y128588D01*
Y127790D01*
X474676Y127052D01*
X475241Y126487D01*
X475979Y126181D01*
X476777D01*
X477515Y126487D01*
X478080Y127052D01*
X478386Y127790D01*
Y128588D01*
X478080Y129326D01*
X477515Y129891D01*
X476777Y130197D01*
D02*
G37*
%LPD*%
D11*
X540353Y121063D02*
Y128935D01*
X536417Y124999D01*
X541665D01*
D12*
X468504Y244685D02*
Y250000D01*
X460630Y244685D02*
Y250000D01*
X468504Y227953D02*
Y235630D01*
X460630Y227953D02*
Y235630D01*
Y220866D02*
X468504D01*
X452073Y221234D02*
X453974D01*
X454342Y220866D02*
X460630D01*
X451772Y221535D02*
X452073Y221234D01*
X453974D02*
X454342Y220866D01*
X297244Y235236D02*
Y242126D01*
X366142Y180709D02*
Y187402D01*
X360354Y200276D02*
X365158Y195473D01*
X366142Y194488D02*
Y194685D01*
X341772Y200276D02*
X360354D01*
X365158Y195473D02*
X365354D01*
X366142Y194685D01*
X360236Y180315D02*
X365748D01*
X366142Y180709D01*
X324803D02*
Y188445D01*
Y205000D02*
X341772Y221969D01*
X324803Y193445D02*
Y205000D01*
Y173622D02*
Y173819D01*
X324016Y174606D02*
X324803Y173819D01*
X323819Y174606D02*
X324016D01*
X323228Y175197D02*
X323819Y174606D01*
X314145Y175197D02*
X323228D01*
X312992Y176350D02*
Y184449D01*
Y176350D02*
X314145Y175197D01*
X307874Y189567D02*
X312992Y184449D01*
X307087Y190354D02*
X307283D01*
X307874Y189764D01*
Y189567D02*
Y189764D01*
X297244Y191142D02*
Y191339D01*
Y191142D02*
X298031Y190354D01*
X307087D01*
X287402Y192224D02*
X296457D01*
X366142Y173425D02*
X366929Y172638D01*
X367126D01*
X366142Y173425D02*
Y173622D01*
X367126Y172638D02*
X392126Y147638D01*
X403543D01*
X360236Y174016D02*
X365748D01*
X366142Y173622D01*
X325787Y172638D02*
X330118Y168307D01*
X348702D01*
X354411Y174016D01*
X360236D01*
X399606Y151575D02*
Y203150D01*
Y151575D02*
X403543Y147638D01*
X379921Y204035D02*
X398819D01*
X342244Y210630D02*
X361142D01*
X341772Y211102D02*
X342244Y210630D01*
X366142Y210138D02*
Y210630D01*
X366929Y209350D02*
X379921D01*
X366142Y210138D02*
X366929Y209350D01*
X379921D02*
X380610Y208661D01*
X386910D01*
X392717D02*
X393110Y209055D01*
X394263Y210236D02*
X399606D01*
X393110Y209083D02*
X394263Y210236D01*
X393110Y209055D02*
Y209083D01*
X392618Y208661D02*
X392717D01*
X401547Y211535D02*
X414370D01*
X401232Y211221D02*
X401547Y211535D01*
X400394Y211221D02*
X401232D01*
X412795Y222749D02*
X414009Y221535D01*
X403622Y232283D02*
X412795Y223110D01*
X334646Y232283D02*
X403622D01*
X414009Y221535D02*
X414370D01*
X412795Y222749D02*
Y223110D01*
X322835Y220472D02*
X334646Y232283D01*
X322835Y215158D02*
Y220472D01*
X307283Y199409D02*
X307874Y200000D01*
Y200197D02*
X322835Y215158D01*
X307087Y199409D02*
X307283D01*
X307874Y200000D02*
Y200197D01*
X297244Y198425D02*
X305906D01*
X306890Y199409D01*
X307087D01*
X287402Y197539D02*
X296457D01*
X297244Y198425D02*
Y209646D01*
D35*
X738465Y229035D02*
D03*
X675315D02*
D03*
D51*
X297244Y235236D02*
D03*
Y209646D02*
D03*
D52*
X399606Y203150D02*
D03*
Y210236D02*
D03*
X366142Y187402D02*
D03*
Y194488D02*
D03*
Y173622D02*
D03*
Y180709D02*
D03*
X324803Y173622D02*
D03*
Y180709D02*
D03*
X297244Y191339D02*
D03*
Y198425D02*
D03*
X460630Y220866D02*
D03*
X468504D02*
D03*
Y227953D02*
D03*
X460630D02*
D03*
D53*
X360236Y174016D02*
D03*
Y180315D02*
D03*
D63*
X561417Y264409D02*
Y272638D01*
X524370Y227362D02*
X561417Y264409D01*
X524370Y227362D02*
Y227362D01*
X507874Y200551D02*
Y210866D01*
Y200551D02*
X524370Y184055D01*
X507874Y210866D02*
X524370Y227362D01*
D64*
X695669Y252756D02*
D03*
X718110D02*
D03*
X695669Y230315D02*
D03*
X718110D02*
D03*
X341772Y248031D02*
D03*
Y185039D02*
D03*
X524370Y249016D02*
D03*
Y227362D02*
D03*
Y205709D02*
D03*
Y184055D02*
D03*
D65*
X639764Y283465D02*
D03*
X620079D02*
D03*
X564567Y302165D02*
D03*
X561417Y272638D02*
D03*
X403543Y285433D02*
D03*
X462598D02*
D03*
X403543Y147638D02*
D03*
X462598D02*
D03*
D66*
X633858Y201772D02*
D03*
Y231299D02*
D03*
X566929Y209646D02*
D03*
Y239173D02*
D03*
X139764Y177165D02*
D03*
Y265748D02*
D03*
X177165Y217520D02*
D03*
Y306102D02*
D03*
D67*
X341772Y221969D02*
D03*
Y211102D02*
D03*
Y200276D02*
D03*
D68*
X291339Y172047D02*
D03*
Y301969D02*
D03*
Y260669D02*
D03*
Y130748D02*
D03*
D69*
X344488Y133858D02*
D03*
X356299D02*
D03*
X368110D02*
D03*
X332677D02*
D03*
X368110Y145669D02*
D03*
X356299D02*
D03*
X344488D02*
D03*
X379921D02*
D03*
Y133858D02*
D03*
X681102Y289370D02*
D03*
X692913Y301181D02*
D03*
X681102D02*
D03*
X500000Y143701D02*
D03*
X488189Y131890D02*
D03*
X500000D02*
D03*
D70*
X332677Y145669D02*
D03*
X692913Y289370D02*
D03*
X488189Y143701D02*
D03*
D71*
X538327Y280709D02*
D03*
Y294094D02*
D03*
X485295Y280709D02*
D03*
Y294094D02*
D03*
D72*
X728346Y295276D02*
D03*
Y137795D02*
D03*
D73*
X559055Y265748D02*
D03*
X564961D02*
D03*
X618110Y269685D02*
D03*
X624016D02*
D03*
X590551Y133858D02*
D03*
Y141732D02*
D03*
X545276Y149606D02*
D03*
X537402D02*
D03*
X596457Y133858D02*
D03*
Y141732D02*
D03*
X537402Y155512D02*
D03*
X545276D02*
D03*
X204724Y259842D02*
D03*
X220472Y124016D02*
D03*
X297244Y242126D02*
D03*
X468504Y250000D02*
D03*
X460630D02*
D03*
D74*
X451772Y211535D02*
D03*
Y221535D02*
D03*
X414370D02*
D03*
Y211535D02*
D03*
D75*
X468504Y244685D02*
D03*
Y235630D02*
D03*
X307087Y199409D02*
D03*
Y190354D02*
D03*
X460630Y235630D02*
D03*
Y244685D02*
D03*
D76*
X386910Y208661D02*
D03*
X392618D02*
D03*
D77*
X379921Y209350D02*
D03*
Y204035D02*
D03*
X287402Y192224D02*
D03*
Y197539D02*
D03*
D78*
X361142Y210630D02*
D03*
X366142D02*
D03*
D79*
X324803Y188445D02*
D03*
Y193445D02*
D03*
M02*
