G04*
G04 #@! TF.GenerationSoftware,Altium Limited,Altium Designer,24.3.1 (35)*
G04*
G04 Layer_Color=16711935*
%FSLAX25Y25*%
%MOIN*%
G70*
G04*
G04 #@! TF.SameCoordinates,FD519535-7E5F-4FBF-A31B-089F6CA01B13*
G04*
G04*
G04 #@! TF.FilePolarity,Negative*
G04*
G01*
G75*
%ADD22R,0.12598X0.06693*%
%ADD23R,0.03937X0.04331*%
%ADD24R,0.03543X0.03543*%
%ADD35C,0.12205*%
%ADD36C,0.12598*%
%ADD37C,0.05906*%
%ADD38C,0.06890*%
%ADD39C,0.08268*%
%ADD40C,0.14173*%
%ADD41C,0.00394*%
%ADD42C,0.06394*%
%ADD43R,0.06394X0.06394*%
%ADD44C,0.09055*%
%ADD45C,0.36811*%
%ADD46C,0.04331*%
%ADD77R,0.03937X0.03543*%
%ADD80O,0.05512X0.03937*%
%ADD81R,0.03347X0.03150*%
%ADD82R,0.04331X0.03937*%
%ADD83R,0.03937X0.06890*%
%ADD84R,0.06890X0.03937*%
D22*
X297244Y235236D02*
D03*
Y209646D02*
D03*
D23*
X399606Y203150D02*
D03*
Y210236D02*
D03*
X366142Y187402D02*
D03*
Y194488D02*
D03*
Y173622D02*
D03*
Y180709D02*
D03*
X324803Y173622D02*
D03*
Y180709D02*
D03*
X297244Y191339D02*
D03*
Y198425D02*
D03*
X460630Y220866D02*
D03*
X468504D02*
D03*
Y227953D02*
D03*
X460630D02*
D03*
D24*
X360236Y174016D02*
D03*
Y180315D02*
D03*
D35*
X695669Y252756D02*
D03*
X718110D02*
D03*
X695669Y230315D02*
D03*
X718110D02*
D03*
X341772Y248031D02*
D03*
Y185039D02*
D03*
X524370Y249016D02*
D03*
Y227362D02*
D03*
Y205709D02*
D03*
Y184055D02*
D03*
D36*
X738465Y229035D02*
D03*
X675315D02*
D03*
D37*
X639764Y283465D02*
D03*
X620079D02*
D03*
X564567Y302165D02*
D03*
X561417Y272638D02*
D03*
X403543Y285433D02*
D03*
X462598D02*
D03*
X403543Y147638D02*
D03*
X462598D02*
D03*
D38*
X633858Y201772D02*
D03*
Y231299D02*
D03*
X566929Y209646D02*
D03*
Y239173D02*
D03*
X139764Y177165D02*
D03*
Y265748D02*
D03*
X177165Y217520D02*
D03*
Y306102D02*
D03*
D39*
X341772Y221969D02*
D03*
Y211102D02*
D03*
Y200276D02*
D03*
D40*
X291339Y172047D02*
D03*
Y301969D02*
D03*
Y260669D02*
D03*
Y130748D02*
D03*
D41*
X562992Y137795D02*
D03*
X366142Y295276D02*
D03*
X391732Y130157D02*
D03*
X320866D02*
D03*
X704724Y304882D02*
D03*
X669291D02*
D03*
X476378Y128189D02*
D03*
X511811D02*
D03*
X137795Y137795D02*
D03*
Y295276D02*
D03*
D42*
X344488Y133858D02*
D03*
X356299D02*
D03*
X368110D02*
D03*
X332677D02*
D03*
X368110Y145669D02*
D03*
X356299D02*
D03*
X344488D02*
D03*
X379921D02*
D03*
Y133858D02*
D03*
X681102Y289370D02*
D03*
X692913Y301181D02*
D03*
X681102D02*
D03*
X500000Y143701D02*
D03*
X488189Y131890D02*
D03*
X500000D02*
D03*
D43*
X332677Y145669D02*
D03*
X692913Y289370D02*
D03*
X488189Y143701D02*
D03*
D44*
X538327Y280709D02*
D03*
Y294094D02*
D03*
X485295Y280709D02*
D03*
Y294094D02*
D03*
D45*
X728346Y295276D02*
D03*
Y137795D02*
D03*
D46*
X559055Y265748D02*
D03*
X564961D02*
D03*
X618110Y269685D02*
D03*
X624016D02*
D03*
X590551Y133858D02*
D03*
Y141732D02*
D03*
X545276Y149606D02*
D03*
X537402D02*
D03*
X596457Y133858D02*
D03*
Y141732D02*
D03*
X537402Y155512D02*
D03*
X545276D02*
D03*
X204724Y259842D02*
D03*
X220472Y124016D02*
D03*
X297244Y242126D02*
D03*
X468504Y250000D02*
D03*
X460630D02*
D03*
D77*
X468504Y244685D02*
D03*
Y235630D02*
D03*
X307087Y199409D02*
D03*
Y190354D02*
D03*
X460630Y235630D02*
D03*
Y244685D02*
D03*
D80*
X451772Y211535D02*
D03*
Y221535D02*
D03*
X414370D02*
D03*
Y211535D02*
D03*
D81*
X386910Y208661D02*
D03*
X392618D02*
D03*
D82*
X379921Y209350D02*
D03*
Y204035D02*
D03*
X287402Y192224D02*
D03*
Y197539D02*
D03*
D83*
X361142Y210630D02*
D03*
X366142D02*
D03*
D84*
X324803Y188445D02*
D03*
Y193445D02*
D03*
M02*
